<svg width="194.42" height="491.62" viewBox="0 0 194.42 491.62" xmlns="http://www.w3.org/2000/svg" xmlns:xlink="http://www.w3.org/1999/xlink" overflow="visible"><defs></defs><path d="M187.21 460.79C187.73 460.74 188.26 460.72 188.78 460.73 190.55 460.76 192.52 461.14 193.53 462.6 193.9 463.13 194.11 463.77 194.23 464.4 194.98 468.07 193.36 471.89 190.87 474.69 189.07 476.71 186.86 478.29 184.58 479.71 183.55 480.36 182.51 481.09 181.46 481.68 179.94 482.52 178.05 483.01 176.4 483.54 174.67 484.1 172.91 484.6 171.15 485.05 167.81 485.91 164.44 486.62 161.07 487.33 152.49 489.13 143.87 490.94 135.11 491.43 131.26 491.65 127.4 491.61 123.55 491.57 118.77 491.52 113.99 491.48 109.22 491.43 104.92 491.39 100.61 491.3 96.31 491.31 95.91 491.31 95.58 491.39 95.19 491.44 94.11 491.58 92.9 491.41 91.81 491.39 90.52 491.36 89.23 491.33 87.94 491.29 82.56 491.13 77.19 490.87 71.82 490.54 61.29 489.9 50.78 489.01 40.27 488.12 28.24 487.1 16.03 486.05 4.7 481.85 3.35 481.35 1.94 480.75 1.12 479.58 0.59 478.83 0.35 477.91 0.28 476.99-0.01 473.22 2.46 469.65 5.68 467.66 9.42 465.35 13.95 464.82 18.26 464.49 20.28 464.34 22.31 464.35 24.33 464.49 28.43 464.77 32.47 465.54 36.47 466.41 40.63 467.31 44.77 468.33 48.97 469.07 59.63 470.94 70.52 470.89 81.35 470.82 87.13 470.79 92.91 470.75 98.66 470.2 106.97 469.4 115.14 467.54 123.48 466.99 125.56 466.85 127.64 466.8 129.72 466.87 130.59 466.9 131.48 467 132.35 466.86 132.9 466.77 133.43 466.57 133.98 466.48 135.9 466.16 138.03 466.46 139.97 466.5 142.12 466.55 144.26 466.6 146.41 466.64 147.35 466.66 148.3 466.68 149.24 466.7 153.81 466.8 158.44 467.11 163.01 466.75 164.54 466.63 166.06 466.37 167.56 466.03 171.42 465.15 175.13 463.73 178.94 462.66 180.46 462.23 181.97 462.02 183.5 461.71 184.31 461.55 185.06 461.17 185.86 460.97 186.3 460.91 186.75 460.84 187.21 460.79Z" opacity="0.15"/><g><g><path d="M183.99 423C183.99 423 193.95 432.28 193.56 440.09 193.56 440.09 192.97 448.13 187.28 451.32 181.58 454.51 181.29 468.07 178.67 470.98 176.05 473.89 170.24 478.19 160.48 478.21 150.72 478.23 149.18 475.93 149.21 473.93 149.25 471.93 146.82 467.27 150.09 464.31 153.37 461.34 162.1 459.87 163.8 456.61 165.5 453.35 164.48 442.35 164.11 435.95 163.74 429.54 180.61 422.43 183.99 423Z" fill="#C25728"/><path d="M183.99 423C180.61 422.43 163.74 429.53 164.11 435.93 164.22 437.8 164.38 440.07 164.51 442.41 165.33 442.77 166.17 443.01 166.98 442.98 170.52 442.87 184.24 440.05 186.87 434.93 189.5 429.81 191.77 435.14 191.29 437.18 190.81 439.22 181.91 448.48 181.15 452.32 180.4 456.16 176.35 465.19 176.36 467.63 176.36 470.07 156.93 473.42 153.85 473.71 152.59 473.83 150.55 472.38 148.67 470.92 148.91 472.12 149.22 473.19 149.21 473.91 149.17 475.91 150.72 478.21 160.48 478.19 170.24 478.17 176.05 473.86 178.67 470.96 181.29 468.06 181.58 454.49 187.28 451.3 192.98 448.11 193.56 440.07 193.56 440.07 193.95 432.29 183.99 423 183.99 423Z" fill="#AA4525"/><path d="M187.28 451.32C192.98 448.13 193.56 440.09 193.56 440.09 193.68 437.68 192.81 435.13 191.56 432.76 191.57 432.83 191.56 432.88 191.57 432.95 193.07 441.91 188.95 447.84 185.82 449.9 182.69 451.96 179.38 464.25 178.03 468.81 176.68 473.37 159.56 475.4 154.68 475.41 152.34 475.41 150.47 474.3 149.14 473.14 149.19 473.43 149.22 473.7 149.22 473.92 149.18 475.92 150.73 478.22 160.49 478.2 170.25 478.18 176.06 473.87 178.68 470.97 181.29 468.07 181.58 454.51 187.28 451.32Z" fill="#381613"/></g><g><path d="M55.03 253.89C55.03 253.89 81.57 363.12 86.53 369.72 91.49 376.32 150.26 430.48 158.98 436.69 167.69 442.9 188.01 437.47 187.16 424.74 187.16 424.74 129.73 378.99 123.64 347.83 117.55 316.67 118.74 260.1 111.76 252.04 104.77 243.98 71.15 244.63 55.03 253.89Z" fill="#7382B5"/><path d="M123.64 347.83C117.55 316.67 118.74 260.1 111.76 252.04 105.85 245.21 80.87 244.66 63.56 250.26 68.86 269.97 82.48 320.7 86.26 335.11 90.98 353.13 92.12 368.67 115.3 386.19 136.54 402.25 162.94 426.49 161.42 437.98 170.97 441.92 187.95 436.41 187.17 424.75 187.15 424.75 129.72 378.99 123.64 347.83Z" fill="#575455"/></g><g><g><path d="M125.12 317.95C125.12 317.95 136.27 313.93 141.29 314.39 146.31 314.85 147.2 312.3 148.83 313.77 150.45 315.24 158.08 320.79 158.22 328.72 158.36 336.65 170.17 344.57 169.52 351.55 168.87 358.53 171.17 369.3 166.3 367.31 166.3 367.31 162.27 370.45 158.33 367.89 154.39 365.33 149.64 362.02 148.32 354.86 147.01 347.7 138.66 338.12 134.08 337.7 129.49 337.28 121.35 327.72 125.12 317.95Z" fill="#C25728"/><path d="M158.32 367.89C162.26 370.46 166.29 367.31 166.29 367.31 167.82 367.93 168.64 367.3 169.07 365.93 167.57 362.4 167.79 354.6 166.54 350.4 165.2 345.88 162.21 342.52 159.39 337.42 156.56 332.32 159.39 337.42 158.18 336.21 156.97 335 155.41 332.87 153.19 330.69 151.59 329.11 148.04 320.01 144.53 314.26 143.68 314.44 142.64 314.54 141.29 314.41 136.27 313.94 125.12 317.97 125.12 317.97 121.35 327.74 129.48 337.29 134.06 337.72 134.33 337.74 134.61 337.81 134.9 337.89 134.83 336.71 134.6 335.36 134.41 334.01 133.88 330.22 134.78 327.67 138.51 327.79 142.24 327.92 146.74 338.67 149.63 340.7 152.52 342.73 156.96 356.56 158.65 362 159.6 365.05 158.8 366.73 157.92 367.64 158.05 367.71 158.19 367.81 158.32 367.89Z" fill="#AA4525"/><path d="M169.51 351.55C170.16 344.57 158.36 336.66 158.21 328.72 158.07 320.79 150.44 315.24 148.82 313.77 147.2 312.3 146.3 314.86 141.28 314.39 140.9 314.35 140.47 314.35 140.03 314.37 139.58 316.47 139.44 318.95 140.18 321.55 142.17 328.55 156.48 342.64 157.8 347.38 159.12 352.12 162.63 364.11 166.29 367.31 171.16 369.3 168.87 358.53 169.51 351.55Z" fill="#373528"/></g><path d="M151.76 321.75C149.51 317.27 147.19 315.45 146.04 314.77 145.57 314.49 145.29 314.4 145.29 314.4L144.92 314.14C144.01 314.37 142.87 314.53 141.29 314.39 140.91 314.35 140.48 314.35 140.04 314.37 139.59 316.47 139.45 318.95 140.19 321.55 142.18 328.55 156.49 342.64 157.81 347.38 159.13 352.12 162.64 364.11 166.3 367.31 166.39 367.35 166.45 367.35 166.54 367.37 167.13 365.8 167.69 358.51 167.69 358.51 167.69 358.51 167.67 356.98 167.83 353.25 167.99 349.52 158.83 338.5 157.49 336.33 156.11 334.17 154.92 328.05 151.76 321.75Z" fill="#AA4525"/></g><path d="M56.94 233.14C56.89 233.02 56.84 232.9 56.8 232.79 53.82 225.63 50.24 207.44 46.66 199.69 43.08 191.94 43.68 168.97 45.17 163.31 46.66 157.64 50.07 144.82 55.14 134.68 60.21 124.54 62.76 123.34 62.76 120.96 62.76 118.58 60.97 112.31 56.5 110.82 52.03 109.33 75.89 98.29 80.06 101.28 80.06 101.28 75.88 107.24 78.27 117.98 80.66 128.72 86.32 132.89 86.62 143.33 86.92 153.77 81.25 171.66 83.64 184.49 86.03 197.31 88.41 209.54 86.03 218.79" fill="#C8907A"/><g><path d="M43.85 260.26C43.85 260.26-4.79 321.98 0.38 342.39 5.56 362.8 38.87 354.72 60.38 350.61 81.89 346.5 132.46 338.14 132.46 338.14 132.46 338.14 134.4 324.62 125.12 317.22 115.84 309.82 69.01 316.5 62 316.61 54.99 316.72 123.93 279.51 117.09 254.53 110.25 229.55 45.38 254.85 43.85 260.26Z" fill="#7382B5"/><path d="M125.12 317.23C115.83 309.83 69.01 316.5 62 316.61 54.99 316.72 123.93 279.51 117.09 254.53 110.25 229.55 45.38 254.85 43.85 260.26 43.85 260.26 41.63 263.08 38.21 267.68 41.99 270.56 46.98 272.95 53.22 273.05 69.41 273.33 89.71 261.14 92.49 266.49 95.27 271.84 82.42 277.98 77.14 285.07 71.86 292.17 57.11 314.51 52.88 319.97 48.65 325.43 32.63 335.39 32.63 335.39 32.63 335.39 51.96 329.69 56.18 323.69L49.86 333.5C49.86 333.5 58.39 326.89 61.6 325.22 64.81 323.55 93.88 319.85 103.04 319.71 110.98 319.58 121.3 317.41 127.83 319.93 127.06 318.99 126.17 318.06 125.12 317.23Z" fill="#575455"/></g><g><path d="M39.78 156.49C39.78 156.49 29.15 163.78 22.96 165.4 22.96 165.4 22.4 165.45 19.15 162.32 15.9 159.19 18.14 156.63 18.14 156.63 18.14 156.63 22.46 156.02 25.25 152.68 28.04 149.34 29.67 143.19 32.14 141.23 34.6 139.27 32.18 137.24 30.37 137.18 28.56 137.12 26.77 140.87 26.11 142.89 25.45 144.91 22.46 146.02 22.58 144.78 22.69 143.54 23.89 136.19 25.86 133.21 27.83 130.23 32.61 127.72 36.69 128.14 40.77 128.56 41.74 123.7 41.74 123.7 41.74 123.7 35.6 122.79 32.27 123.82 28.94 124.85 29.81 122.69 29.81 122.69 29.81 122.69 25.47 121.84 23.26 123.5 21.05 125.16 16.94 128.72 16.34 128.95 15.74 129.17 10.27 130.06 9.61 132.08 8.95 134.1 5.86 137.19 4.6 142.52 3.34 147.85 2.09 153.91 2.63 156.22 3.17 158.53 4.75 167.98 4.71 175.06 4.67 182.13 8.85 190.57 15.02 190.58 21.19 190.59 22.75 188.6 25.3 186.29 27.85 183.98 36.26 178.35 39.81 177.92 43.34 177.5 42.19 157.79 39.78 156.49Z" fill="#DFB6A0"/><path d="M18.55 190.29C21.91 189.66 23.32 188.08 25.28 186.3 27.82 184 36.24 178.36 39.79 177.93 43.34 177.5 42.19 157.79 39.78 156.49 39.78 156.49 29.15 163.78 22.96 165.4 23.44 166.42 26.19 177.06 24.03 182.36 23.04 184.79 20.75 187.76 18.55 190.29Z" fill="#B69272"/><path d="M28.86 127.39C25.9 127.6 23.9 132.21 24.69 129.67 25.47 127.13 22.15 128.89 21.5 131.64 20.85 134.39 18.11 141.37 16.82 141.43 15.53 141.49 18.6 136.22 18.62 134.59 18.64 132.96 16.51 133.54 16.51 133.54 16.51 133.54 12.28 145.25 10.95 144.76 9.62 144.27 12.14 140.5 12.1 137.59 12.06 134.68 10.26 134.61 10.26 134.61 10.26 134.61 10.3 141.34 8.17 145.74 6.04 150.14 6.54 155.71 8.14 157.36 9.75 159.01 8.5 161.99 9.01 162.11 9.53 162.23 15.92 159.02 16.49 156.61 17.06 154.2 20.61 153.77 22.91 152.5 25.21 151.23 27.58 145.07 29.42 141.87 31.27 138.67 29.86 139.25 30.35 137.19 28.55 137.13 26.75 140.88 26.09 142.9 25.43 144.92 22.44 146.03 22.56 144.79 22.67 143.55 23.87 136.2 25.84 133.22 27.82 130.24 32.59 127.73 36.67 128.15 40.75 128.57 41.72 123.71 41.72 123.71 39.35 126.06 31.82 127.18 28.86 127.39Z" fill="#B69272"/><path d="M16.54 129.56C16.54 129.56 24.5 131.99 25.96 131.97 27.42 131.95 27.49 133.97 25.23 135.07 22.97 136.17 18.87 133.56 16.91 134.92 14.95 136.28 14.62 133.11 14.62 133.11 14.62 133.11 15.73 129.19 16.54 129.56Z" fill="#DFB6A0"/><path d="M8.39 135.62C8.39 135.62 11.54 133.82 13.77 133.62 16 133.42 13.3 137.14 12.1 137.59 10.9 138.04 10.17 137.31 9.27 141.1 8.38 144.88 6.14 140.54 8.39 135.62Z" fill="#DFB6A0"/></g><path d="M107.79 241.59C107.79 241.59 108.17 216.3 100.91 200.47 93.66 184.64 104.94 159.95 103.99 149.07 103.04 138.19 101.5 139.38 101.5 139.38 101.5 139.38 95.04 124.7 82.19 123.74 69.34 122.78 55.13 134.67 55.13 134.67 55.13 134.67 49.23 145.34 45.39 149.89 40.68 155.47 28.59 168.77 41.78 188.47 48.66 198.74 47.8 212.35 47.56 222.08 47.33 231.81 45.61 245.69 44.18 253.88 42.75 262.07 67.67 263.23 75.38 258.83 83.09 254.43 102.94 254.89 104.46 252.92 105.99 250.96 107.79 241.59 107.79 241.59Z" fill="#978E7B"/><path d="M68.23 260.9C71.13 260.49 73.69 259.8 75.38 258.83 83.09 254.43 102.94 254.89 104.46 252.92 105.98 250.95 107.78 241.59 107.78 241.59 107.78 241.59 108.16 216.3 100.9 200.47 93.65 184.64 104.93 159.95 103.98 149.07 103.03 138.19 101.49 139.38 101.49 139.38 101.49 139.38 99.19 134.19 94.63 129.78 93.52 129.17 92.63 128.58 92.17 127.99 92.04 127.82 91.97 127.66 91.95 127.51 89.26 125.54 86.01 124.02 82.18 123.73 76.97 123.34 71.55 125.07 66.94 127.26 65.13 128.92 63.31 130.54 61.49 132.02 50.32 141.04 48.84 141 50.27 142.39 51.71 143.78 69.42 141.79 73.25 138.2 77.08 134.6 83.99 146.51 77.02 152.99 70.05 159.46 75.89 180.55 79.18 187.57 82.47 194.59 84.91 227.11 82.23 236.7 79.95 244.93 68.27 257.19 68.23 260.9Z" fill="#847B6B"/><path d="M55.14 134.68C55.14 134.68 56.51 122.99 54.53 120.69 52.55 118.39 66.46 112.72 80.02 109.39 93.58 106.06 105.66 107.04 109.53 105.81 113.4 104.58 115.79 108.04 114.09 123.24 112.39 138.44 103.42 137.41 103.06 139.36 102.7 141.31 99.97 140.58 99.97 140.58 99.97 140.58 93.88 124.34 82.2 123.75 70.52 123.16 59.35 130.33 55.14 134.68Z" fill="#978E7B"/><path d="M114.61 105.71C107.06 102.7 96.79 111.43 91.56 110.33 85.23 109 76.73 118.18 67.78 126.5 72.14 124.69 77.12 123.48 82.2 123.73 93.88 124.32 99.97 140.56 99.97 140.56 99.97 140.56 102.7 141.29 103.06 139.34 103.22 138.44 105.21 138.16 107.47 136.66 104.71 133.42 94.23 130.61 92.2 127.98 90.03 125.19 103.47 124.97 108.72 121.71 110.38 120.68 112.4 120.28 114.39 120.21 114.65 116.99 114.74 107.77 114.61 105.71Z" fill="#847B6B"/><g><path d="M80.87 19.66C80.87 19.66 46.88 8.33 32.35 30.41 17.82 52.49 32.64 67.6 32.64 73.41 32.64 79.22 27.99 83.29 27.99 86.48 27.99 89.68 32.06 89.09 32.06 90.26 32.06 91.42 29.45 99.56 37.87 112.34 37.87 112.34 39.03 113.79 46.3 114.08 53.56 114.37 71 111.47 83.2 101.59 95.4 91.71 110.8 89.1 112.55 61.2 114.3 33.3 80.87 19.66 80.87 19.66Z" fill="#E0B8A4"/><path d="M48.62 51.62C48.62 51.62 55.3 66.44 59.08 70.21 62.86 73.99 64.31 77.47 64.31 79.8 64.31 82.13 66.63 87.94 66.63 89.39 66.63 90.84 69.54 77.77 70.99 76.9 72.44 76.03 77.38 73.99 78.25 73.99 79.12 73.99 86.09 80.96 86.68 88.23 87.26 95.49 80.29 96.37 80.58 102.18 80.58 102.18 73.9 103.34 70.12 108.57 70.12 108.57 62.57 113.51 60.24 119.03L57.33 128.62C57.33 128.62 52.1 133.56 49.78 135.59 47.46 137.62 50.07 142.56 50.07 142.56 50.07 142.56 64.31 129.78 68.08 129.49 71.86 129.2 76.22 125.71 76.22 125.71 76.22 125.71 87.26 127.45 88.71 123.39 90.16 119.32 102.37 125.42 106.14 115.84 109.92 106.25 124.44 105.38 124.44 91.43 124.44 77.48 136.93 81.84 136.64 64.7 136.35 47.56 142.74 39.42 132.57 26.06 122.4 12.69 121.53 5.72 100.32 4.27 79.11 2.82 69.25-2.71 62.28 1.64 55.31 5.99 37.58 9.49 37 12.1 36.42 14.71 24.22 30.4 24.22 34.76 24.22 39.12 20.73 42.02 24.8 43.77 28.87 45.52 45.72 46.97 48.62 51.62Z" fill="#AA7E2C"/><g><path d="M44.55 10.36C44.55 10.36 57.33 7.45 61.69 25.47 66.05 43.49 61.4 47.55 68.95 55.69 68.95 55.69 57.62 51.33 54.13 40 54.13 40 59.07 60.63 55.29 69.64 55.29 69.64 53.55 61.21 45.7 55.11 45.7 55.11 45.41 58.02 46.28 61.79 46.28 61.79 32.91 56.56 28.27 48.13 28.27 48.13 28.27 55.1 30.59 60.62 30.59 60.62 24.2 56.26 21.58 50.74 21.58 50.74 19.84 58 22.74 64.4L13.47 49C13.47 49 14.34 33.31 16.08 29.24L10.56 32.44C10.56 32.44 18.4 24.3 18.99 21.98 19.57 19.66 26.54 15.01 26.54 15.01L14.05 18.5C14.05 18.5 21.31 15.01 25.38 11.53 29.45 8.05 44.55 10.36 44.55 10.36Z" fill="#896327"/><g><path d="M18.7 37.09C18.7 41.45 24.8 52.49 24.22 49 23.64 45.51 24.22 32.44 24.8 36.51 25.38 40.58 35.55 53.94 41.36 55.98 43.09 56.59 44.59 57.76 45.84 59.11 45.94 59.92 46.08 60.83 46.3 61.79 46.3 61.79 32.93 56.56 28.29 48.13 28.29 48.13 28.29 55.1 30.61 60.62 30.61 60.62 24.22 56.26 21.6 50.74 21.6 50.74 19.86 58 22.76 64.4L21.88 62.94C21.78 62.65 21.68 62.36 21.6 62.08 16.95 45.81 18.7 32.73 18.7 37.09Z" fill="#775321"/><path d="M52.98 54.23C54.72 51.03 53.27 35.93 53.27 35.93 53.27 35.93 62.28 47.55 60.82 43.77 59.37 39.99 59.37 34.18 56.17 20.24 55.3 16.46 53.51 13.47 51.37 11.12 55.14 12.61 59.49 16.37 61.69 25.47 66.05 43.48 61.4 47.55 68.95 55.69 68.95 55.69 57.62 51.33 54.13 40 54.13 40 59.07 60.63 55.29 69.64 55.29 69.64 54.41 65.43 51.13 60.81 51.58 58.34 52.19 55.69 52.98 54.23Z" fill="#775321"/></g></g><path d="M78.26 73.99C78.26 73.99 68.09 70.21 63.73 62.66 59.37 55.11 64.89 67.02 66.93 70.5 68.97 73.98 62.57 70.5 62.57 70.5 62.57 70.5 70.12 79.8 78.26 73.99Z" fill="#775321"/><path d="M70.99 77.77C70.99 77.77 76.8 71.96 81.74 73.99 86.68 76.02 88.13 79.51 87.26 85.03 86.39 90.55 84.06 95.2 79.42 97.81 74.77 100.42 68.09 100.13 68.09 100.13 68.09 100.13 69.25 82.71 70.99 77.77Z" fill="#E0B8A4"/><path d="M74.19 81.54C74.19 81.54 81.74 77.76 82.62 79.51 83.5 81.26 84.07 86.77 80.59 89.97 77.1 93.17 70.71 94.33 70.71 94.33 70.71 94.33 73.32 83.58 74.19 81.54Z" fill="#CF7C72"/><g><path d="M101.69 120.64C96.62 122.88 89.78 120.4 88.72 123.39 88.44 124.18 87.78 124.75 86.92 125.16 87.96 123.43 87.22 120.64 91.63 119.9 94.05 119.49 98.05 120.34 101.69 120.64Z" fill="#775321"/><path d="M124.61 88.93C123.03 89.59 121.68 90.93 121.84 89.97 122.13 88.23 123.29 85.32 126.49 81.25 128.67 78.48 130.98 77.87 132.23 77.76 129.12 80.97 125.4 82.82 124.61 88.93Z" fill="#775321"/><path d="M136.66 64.69C136.7 67.01 136.5 68.93 136.13 70.56 135.65 68.9 135.04 67.32 134.62 65.85 133.46 61.78 136.94 53.36 136.94 42.9 136.94 32.44 129.68 32.44 126.77 22.85 123.87 13.27 110.8 7.16 96.27 6 89.74 5.48 85.15 3.72 82.05 1.86 87.03 2.76 92.99 3.75 100.34 4.25 121.55 5.7 122.42 12.68 132.59 26.04 142.76 39.42 136.37 47.55 136.66 64.69Z" fill="#775321"/><path d="M48.85 137.58C50.83 137.87 53.73 137.1 56.76 135.59 61.41 133.27 61.12 132.39 62.86 128.91 64.6 125.42 64.6 131.23 67.22 129.49 69.83 127.75 70.71 124.55 76.81 123.97 80.78 123.59 82.53 125.18 83.92 125.93 80.38 126.36 76.23 125.71 76.23 125.71 76.23 125.71 71.87 129.2 68.09 129.49 64.31 129.78 50.08 142.56 50.08 142.56 50.08 142.56 48.63 139.82 48.85 137.58Z" fill="#775321"/><path d="M108.03 112.58C105.52 111.35 101.49 112.55 102.08 110.59 102.95 107.68 108.18 107.68 114.57 104.2 117.03 102.86 119.91 101.13 122.42 99.26 118.97 105.1 111.94 107.61 108.03 112.58Z" fill="#775321"/></g><path d="M50.53 63.94C48.6 61.89 45.07 61.4 42.54 62.54 41.9 62.83 42.12 63.86 42.85 63.77 44.2 63.6 45.43 63.43 46.8 63.56 48.01 63.68 49.15 64 50.34 64.25 50.5 64.29 50.65 64.07 50.53 63.94Z" fill="#4E2A1E"/><ellipse cx="44.27" cy="73.38" rx="4.91" ry="4.96" fill="#FFFFFF"/><ellipse cx="43.03" cy="74.09" rx="2.73" ry="3.32" fill="#915323"/><ellipse cx="41.88" cy="72.68" rx="1.46" ry="1.77" fill="#FFFFFF"/><path d="M40.32 70.43C40.32 70.43 41.19 68.86 42.15 68.42 43.11 67.98 44.3 67.83 44.71 67.16L44.42 67.98C44.42 67.98 46.92 67.8 48.49 68.6L47.88 68.79C47.88 68.79 49.57 70.25 50.5 70.76 50.5 70.76 49.13 70.71 48.58 70.42 48.58 70.42 48.96 71.66 49.05 72.32 49.15 72.98 48.93 72.32 48.93 72.32 48.93 72.32 48.49 69.98 46.69 69.48 44.9 68.99 42.04 68.53 40.32 70.43Z" fill="#4E2A1E"/><path d="M37.84 97.86C37.84 97.86 43.12 98.92 44.53 102.79 45.94 106.66 41.36 106.09 39.25 105.96 38.37 105.9 33.62 98.91 37.84 97.86Z" fill="#CF7C72"/><path d="M44.1 101.89 44.01 101.87C44.01 101.87 40.84 101.87 40.31 102.93 39.8 103.95 38.05 103.13 37.47 103.92 38.17 105.08 38.95 105.95 39.26 105.97 41.37 106.1 45.95 106.67 44.54 102.8 44.42 102.47 44.26 102.17 44.1 101.89Z" fill="#E0574C"/><path d="M34.63 88.13C34.63 88.13 32.39 88.13 31.86 88.13 31.33 88.13 33.18 89.45 34.63 88.13Z" fill="#CF7C72"/></g><path d="M103.06 139.36C103.06 139.36 120.21 193.8 116.96 221.18 113.71 248.56 117.32 249.64 113.98 253.43 112.14 255.52 81.12 259.52 74.68 260.21 68.24 260.9 73.05 253.16 75.22 252.89 77.39 252.62 94.74 226.33 92.3 216.57 89.86 206.81 96.88 141.79 99.97 140.58 103.06 139.36 103.06 139.36 103.06 139.36" fill="#847B6B"/><g><path d="M124.98 182.68C124.98 182.68 144.09 198.04 145.45 208.57 146.81 219.1 126.06 251.74 124.07 258.42 122.08 265.1 124.17 267.5 123.35 269.39 122.53 271.28 122.63 280.36 119.49 280.95 119.49 280.95 121.31 286.78 120.42 288.14 119.53 289.5 115.32 291.47 114.4 291.24 114.4 291.24 113.75 293.11 111.29 293.43 108.83 293.75 107.27 292.7 107.27 292.7 107.27 292.7 106.38 295.49 100.73 293.19 100.73 293.19 94.26 294.2 93.33 291.12 92.4 288.03 92.09 282.9 94.31 279.4 96.53 275.9 106.49 264.63 108.46 263.3 110.43 261.97 116.87 249.73 117.66 244.81 118.45 239.89 119.54 222.09 122.92 213.81 122.92 213.81 120.54 206.45 110.7 203.44 100.87 200.42 124.98 182.68 124.98 182.68Z" fill="#DFB6A0"/><path d="M122.86 213.6C125.19 211.79 127.99 210.11 127.99 210.11 127.99 210.11 123.25 209.3 124.04 204.38 124.83 199.46 124.99 200.69 129.03 197.49 131.39 195.62 131.71 191.58 131.56 188.55 127.91 185.05 124.97 182.68 124.97 182.68 124.97 182.68 120.56 185.93 116.28 189.89 113.66 194.13 112.46 200.61 112.6 202.83 112.62 203.15 112.73 203.64 112.89 204.23 120.1 207.22 122.46 212.55 122.86 213.6Z" fill="#B69272"/><g><path d="M99.33 284.98C99.79 284.39 96.8 287.45 97.53 290.38 97.88 291.79 98.62 292.65 99.34 293.3 100.15 293.25 100.74 293.17 100.74 293.17 100.74 293.17 98.87 285.58 99.33 284.98Z" fill="#B69272"/><path d="M107.28 292.69C105.64 289.69 104.6 285.72 104.6 285.72 104.6 285.72 104.19 288.09 105.26 290.81 105.66 291.84 105.96 292.87 106.18 293.77 107.06 293.36 107.28 292.69 107.28 292.69Z" fill="#B69272"/><path d="M123.35 269.39C123.83 268.29 123.33 266.98 123.22 264.79 122.72 266.23 122.22 268.05 122.02 270.1 121.56 274.8 121.44 278.02 118.99 279.77 117.01 281.18 119.4 286.05 119.78 288.81 120.05 288.58 120.29 288.35 120.43 288.14 121.32 286.78 119.5 280.95 119.5 280.95 122.63 280.36 122.53 271.28 123.35 269.39Z" fill="#B69272"/><path d="M110.99 288.29C110.39 286.41 110.28 285.53 110.28 285.53 110.28 285.53 108.52 289.86 110.26 290.88 111.19 291.43 112.25 292.17 113.01 292.82 114.07 292.16 114.41 291.23 114.41 291.23 114.41 291.23 111.59 290.17 110.99 288.29Z" fill="#B69272"/></g><path d="M115.72 171.75C115.72 171.75 128.4 181.52 128.85 185.03 129.3 188.54 112.56 213.53 99.61 201.65 86.66 189.77 115.72 171.75 115.72 171.75Z" fill="#FFFFFF"/><path d="M72.92 138.76C72.92 138.76 114.53 162.63 120.53 170.41 126.53 178.19 115.31 201.76 104.6 201.72 93.89 201.68 91.79 201.95 90.88 194.93 89.97 187.91 72.36 195.18 70.51 191.86 68.66 188.54 65.11 139.06 72.92 138.76Z" fill="#978E7B"/></g></g></svg>