<svg width="450" height="403.58" viewBox="0 0 450 403.58" xmlns="http://www.w3.org/2000/svg" xmlns:xlink="http://www.w3.org/1999/xlink" overflow="visible"><defs></defs><path d="M154.47 352.99C186.7 353.01 218.93 353.04 251.16 353.06 259.82 353.07 268.5 353.07 277.12 353.88 284.96 354.61 292.71 356 300.46 357.39 328.64 362.44 356.82 367.5 385 372.55 390.01 373.45 395.33 374.5 399.02 378 402.71 381.5 403.66 388.36 399.56 391.38 397.25 393.09 394.13 393.1 391.43 394.09 388.21 395.27 385.68 397.81 382.64 399.41 378.04 401.84 372.62 401.99 367.42 402.08 337.94 402.6 308.43 403.11 279 401.27 266.95 400.52 254.93 399.37 242.88 398.61 215.1 396.86 187.24 397.17 159.4 397.49 151.95 397.57 144.48 397.66 137.11 398.75 126.6 400.3 116.26 403.9 105.66 403.24 96.18 404.06 85.98 403.26 76.65 401.37 73.75 400.78 70.71 399.97 68.65 397.84 66.23 395.32 65.73 391.53 65.83 388.04 65.96 383.61 67 378.92 70.16 375.81 72.17 373.83 74.83 372.68 77.42 371.58 85.76 368.03 94.11 364.48 102.72 361.65 119.12 356.3 137.22 352.98 154.47 352.99Z" opacity="0.15"/><g><path d="M195.07 285.01C195.07 285.01 191.7 304.12 187.2 313.12 182.7 322.11 180.45 325.49 180.45 325.49 180.45 325.49 182.14 319.31 180.45 317.62 178.76 315.93 178.76 323.8 172.58 331.11 166.4 338.42 159.09 337.29 160.21 341.79 161.33 346.29 172.58 343.48 178.2 345.73 183.82 347.98 189.44 355.85 189.44 360.35 189.44 364.85 175.95 363.16 175.39 366.53 174.83 369.9 175.95 372.71 169.77 372.15 163.59 371.59 169.77 377.77 162.46 377.77 155.15 377.77 142.78 383.39 133.79 378.89 124.8 374.39 93.88 353.03 106.24 336.17 118.6 319.31 120.86 315.93 133.22 305.81 145.59 295.69 145.03 288.38 156.27 282.2 167.51 276.02 162.45 269.27 175.95 269.27 189.44 269.27 195.07 285.01 195.07 285.01Z" fill="#1B171E"/><path d="M231.61 263.09C231.97 263.77 232.32 264.43 232.67 265.07 250.12 297.66 248.96 290.91 245.1 304.69L250.16 304.13C250.16 304.13 244.54 312.56 247.35 320.43 250.16 328.3 250.72 329.42 250.72 338.42 250.72 347.41 259.71 347.41 258.03 357.53 256.34 367.65 260.84 370.46 268.71 370.46 276.58 370.46 300.75 369.34 300.75 369.34 300.75 369.34 281.64 299.63 270.39 286.14 259.15 272.65 253.53 243.98 242.84 248.48 232.17 252.97 231.61 263.09 231.61 263.09Z" fill="#181621"/><path d="M286.7 73.08C286.7 73.08 260.28 73.64 238.36 73.08 216.44 72.52 164.72 71.39 143.36 78.14 122 84.89 79.27 108.5 63.53 121.43 47.79 134.36 16.87 179.33 11.81 184.39 6.75 189.44 0 198.44 0 198.44L7.31 195.63C7.31 195.63-0.56 217.55 1.13 223.18 2.82 228.8 13.5 250.73 16.31 259.16 19.12 267.59 10.13 273.78 10.13 273.78 10.13 273.78 15.75 271.25 17.02 269.77 18.29 268.29 19.97 274.62 20.18 280.73 20.39 286.84 17.02 294.01 18.7 297.38 18.7 297.38 19.12 292.32 21.65 290.84 24.18 289.36 43.36 291.26 43.36 306.02 43.36 320.78 37.25 337.43 42.31 349.87 47.37 362.31 60.02 381.7 61.49 386.34 62.97 390.98 101.96 398.15 111.03 396.88 120.1 395.61 119.25 392.24 119.25 392.24 119.25 392.24 131.06 392.24 132.95 389.29 134.85 386.34 144.54 387.39 144.97 382.33 145.4 377.27 147.92 373.69 142.86 370.74 137.8 367.79 128.74 367.37 121.99 360.83 115.24 354.3 114.82 351.77 109.76 349.87 104.7 347.97 133.37 334.9 134.42 329.84 135.47 324.78 135.05 334.9 134.42 337.64 133.79 340.38 139.06 333.85 141.8 323.31 144.54 312.77 152.34 311.72 152.34 306.66 152.34 301.6 158.88 309.82 158.88 309.82 158.88 309.82 160.99 303.71 160.99 295.27 160.99 286.83 164.36 296.32 166.68 285.36 169 274.4 169.63 291.68 172.37 293.79 172.37 293.79 172.16 289.78 174.69 289.15 177.22 288.52 187.34 295.47 189.45 296.53 191.56 297.58 190.71 294.63 192.4 293.58 194.09 292.53 205.68 296.53 209.05 295.9 212.42 295.27 218.11 290.21 218.11 290.21 218.11 290.21 226.54 297.59 229.49 287.05 232.44 276.51 243.19 272.08 244.46 265.97 245.72 259.86 246.36 270.82 245.51 274.19 244.67 277.56 251.2 271.24 251.2 271.24 251.2 271.24 249.09 280.09 247.83 281.36 246.57 282.62 253.31 288.53 258.37 292.32 263.43 296.11 259.42 299.28 262.38 306.65 265.34 314.02 263.86 321.83 262.8 323.3 261.75 324.78 265.96 325.83 265.96 325.83L261.32 334.47C261.32 334.47 268.07 334.47 269.12 334.68 270.17 334.89 266.17 341 266.17 347.12 266.17 353.23 273.13 348.38 277.34 353.87 281.55 359.36 276.29 365.04 276.29 365.04 276.29 365.04 283.04 363.78 285.78 366.09 288.52 368.4 281.77 372.84 281.77 372.84 281.77 372.84 286.83 373.05 288.31 374.1 289.79 375.15 285.99 377.68 285.99 379.58 285.99 381.48 291.47 382.53 293.79 382.53 296.11 382.53 303.07 381.48 304.54 384.22 306.01 386.96 316.98 394.55 328.99 393.71 341.01 392.87 373.26 398.14 375.79 395.4 378.32 392.66 378.11 389.92 378.95 389.71 379.79 389.5 390.97 392.24 392.23 388.02 393.49 383.8 401.29 382.12 400.87 377.48 400.45 372.84 399.39 365.89 392.86 365.46 386.32 365.04 369.67 362.93 364.4 359.35 359.13 355.77 351.96 339.11 349.01 326.68 346.06 314.24 350.49 305.39 350.49 305.39 350.49 305.39 355.13 306.87 354.28 304.76 353.44 302.65 347.11 303.28 347.74 286.84 348.37 270.4 344.58 271.87 344.58 271.87 344.58 271.87 352.38 273.98 353.22 276.3 354.06 278.62 353.22 270.82 351.32 267.87 349.42 264.92 345.42 253.11 344.15 249.11 342.88 245.11 353.64 249.74 353.64 249.74 353.64 249.74 351.95 244.89 348.16 242.36 344.37 239.83 347.32 229.5 347.95 223.18 348.58 216.86 353.85 193.03 354.91 192.4 355.96 191.77 356.95 179.89 356.95 169.77 356.95 159.65 373.25 142.79 354.14 118.05 335.04 93.32 296.82 61.27 286.7 73.08Z" fill="#42393E"/><g><path d="M322.57 244.11C321.05 246.25 320.15 248.05 320.15 248.05 320.15 248.05 321.11 246.41 322.57 244.11Z" fill="#D1C1A8"/><path d="M329.84 261.96C329.84 261.96 348.39 268.28 349.66 270.81 350.04 271.57 350.66 273.03 351.5 274.6 352.37 275.13 353.03 275.7 353.24 276.29 354.08 278.61 353.24 270.81 351.34 267.86 349.44 264.91 345.44 253.1 344.17 249.1 342.91 245.09 353.66 249.73 353.66 249.73 353.66 249.73 351.97 244.88 348.18 242.35 344.39 239.82 347.34 229.49 347.97 223.17 348.6 216.85 353.87 193.02 354.93 192.39 355.98 191.76 356.97 179.88 356.97 169.76 356.97 159.64 373.27 142.78 354.16 118.04 335.05 93.31 296.82 61.26 286.7 73.07 286.7 73.07 284.35 73.12 280.49 73.17 280.25 75.01 279.09 78.47 274.2 81.92 267.03 86.98 274.62 85.29 273.36 97.94 272.1 110.59 278.42 117.33 280.95 121.97 283.48 126.61 276.31 132.09 276.31 133.78 276.31 135.47 279.68 133.36 288.12 138 296.55 142.64 291.07 146.43 286.86 147.7 282.91 148.88 277.85 151.92 277.23 152.3 277.84 151.94 282.88 149.35 292.34 154.87 302.46 160.77 291.92 164.57 291.92 164.57 291.92 164.57 285.6 171.32 285.6 172.58 285.6 173.84 293.19 172.16 299.93 177.22 306.68 182.28 318.48 197.46 325.65 200.41 332.82 203.36 325.65 212.22 325.65 212.22 325.65 212.22 339.56 209.69 342.51 213.48 345.46 217.27 337.03 219.38 337.03 222.76 337.03 226.14 337.45 226.55 332.39 231.19 329.18 234.13 325.13 240.13 322.59 244.12 324.82 240.98 328.38 237.1 332.39 237.1 339.14 237.1 334.92 240.05 338.29 241.74 341.66 243.43 337.03 245.53 338.29 249.33 339.55 253.12 345.04 256.92 344.61 261.14 344.18 265.33 329.84 261.96 329.84 261.96Z" fill="#181621"/><path d="M277.2 152.3C277.16 152.32 277.14 152.34 277.14 152.34 277.14 152.34 277.16 152.33 277.2 152.3Z" fill="#D1C1A8"/></g><path d="M419.43 22.28C419.43 22.28 427.02 16.38 429.97 16.59 432.92 16.8 441.56 16.8 443.46 19.12 445.36 21.44 449.78 23.55 449.78 23.55 449.78 23.55 446.41 24.6 447.67 26.29 448.93 27.98 449.99 29.45 449.99 37.04 449.99 44.63 446.62 51.8 446.62 51.8L445.14 50.96C445.14 50.96 443.24 56.23 441.13 57.07 439.04 57.9 423.65 21.43 419.43 22.28Z" fill="#42393E"/><path d="M314.45 21.85C314.45 21.85 307.91 14.47 296.95 14.68 285.99 14.89 280.3 19.32 278.19 19.74 276.08 20.16 273.76 23.53 273.76 23.53 273.76 23.53 276.92 22.48 275.66 24.58 274.4 26.68 271.23 31.11 271.23 34.7 271.23 38.28 272.07 43.34 272.49 46.51 272.91 49.67 275.65 51.57 275.65 51.57L277.97 50.09C277.97 50.09 275.65 56.2 279.66 59.58 283.67 62.95 289.57 66.75 289.57 66.75 289.57 66.75 319.3 35.13 314.45 21.85Z" fill="#42393E"/><path d="M312.56 26.49C312.56 26.49 308.55 21.43 301.6 21.64 294.64 21.85 289.58 22.69 286 25.65 282.42 28.61 278.41 30.5 278.41 30.5L281.36 30.92C281.36 30.92 277.35 32.82 277.99 37.03 278.63 41.24 280.73 45.04 281.57 47.78 282.41 50.52 282.41 51.36 282.41 51.36 282.41 51.36 283.46 58.74 288.52 59.79 293.58 60.84 296.32 59.16 302.01 53.89 307.7 48.62 312.56 26.49 312.56 26.49Z" fill="#181621"/><path d="M419.36 133.79 420.34 133.25 425.54 130.41 423.57 129.29C423.57 129.29 423.57 126.76 426.66 123.67 429.75 120.58 434.25 111.02 434.25 111.02 434.25 111.02 432.84 112.14 432.28 111.02 432.28 111.02 435.93 106.8 437.06 102.59 438.19 98.38 442.4 95.56 440.71 90.5 439.02 85.44 444.65 77.01 444.65 77.01 444.65 77.01 447.18 73.07 444.09 71.39 441 69.7 440.44 67.45 441.56 64.93 442.68 62.4 442.97 57.62 441.28 53.97 439.59 50.32 433.13 49.19 435.38 45.54 437.63 41.89 438.47 38.79 438.47 38.79 438.47 38.79 436.78 43.29 434.53 42.44 432.28 41.6 434.53 37.1 433.69 35.41 432.85 33.72 432.57 36.25 430.88 35.97 429.19 35.69 431.72 27.26 427.79 23.88 423.86 20.5 422.45 22.47 409.8 16.85 397.15 11.23 389.01 5.9 382.54 3.65 376.08 1.41 371.58 0 371.58 0 371.58 0 374.39 3.37 372.99 4.22 371.58 5.06 361.18 2.25 355.28 2.25 349.38 2.25 348.53 5.06 348.53 5.06L352.75 6.18C352.75 6.18 342.35 6.18 338.98 6.18 335.61 6.18 322.4 8.71 320.99 10.68 319.58 12.65 320.99 16.58 318.46 19.11 315.93 21.64 310.87 13.77 310.87 13.77L311.15 20.23 303.28 25.29C303.28 25.29 307.5 23.32 309.18 25.01 310.87 26.7 310.3 28.1 308.34 32.6 306.38 37.1 299.91 36.54 299.91 36.54 299.91 36.54 304.69 36.82 304.69 39.35 304.69 41.88 299.63 49.47 297.94 49.75 296.25 50.03 293.16 52 293.16 52L298.78 52.56C298.78 52.56 297.66 57.62 294.84 57.62 292.02 57.62 289.78 53.68 287.25 53.68 284.72 53.68 283.03 58.46 280.5 59.58 277.97 60.7 283.03 61.55 283.03 61.55 283.03 61.55 285.84 68.58 283.03 71.39 280.22 74.2 277.69 78.7 277.69 78.7 277.69 78.7 281.06 78.42 283.59 78.98 286.12 79.54 281.34 85.16 281.34 85.16 281.34 85.16 289.21 84.88 290.9 86 292.59 87.12 288.09 92.46 288.09 92.46 288.09 92.46 292.59 93.3 295.4 94.71 298.21 96.12 293.99 103.14 293.99 103.14 293.99 103.14 297.93 100.89 300.17 101.73 302.42 102.57 297.08 108.76 297.08 108.76 297.08 108.76 297.64 108.48 301.3 109.6 304.95 110.72 313.95 111.29 313.11 112.69 312.27 114.1 307.49 118.31 307.49 118.31 307.49 118.31 308.05 118.31 313.95 119.15 319.85 119.99 313.11 125.61 313.11 125.61 313.11 125.61 320.42 127.58 324.07 129.55 327.72 131.52 321.54 135.73 331.38 140.51 341.22 145.29 347.96 149.79 353.3 156.53 358.64 163.27 364.54 176.77 381.41 176.21 398.27 175.65 400.52 177.33 403.9 173.68 407.28 170.03 411.21 170.03 410.65 165.25 410.09 160.47 410.09 160.47 410.09 160.47 410.09 160.47 411.21 154.57 413.46 154.29 415.71 154.01 419.64 143.61 419.64 140.8 419.64 137.99 419.36 133.79 419.36 133.79Z" fill="#42393E"/><path d="M444.1 71.39C441.01 69.7 440.45 67.45 441.57 64.93 442.69 62.41 442.98 57.62 441.29 53.97 439.6 50.32 433.14 49.19 435.39 45.54 437.64 41.89 438.48 38.79 438.48 38.79 438.48 38.79 436.79 43.29 434.54 42.44 432.29 41.6 434.54 37.1 433.7 35.41 432.86 33.72 432.58 36.25 430.89 35.97 429.2 35.69 431.73 27.26 427.8 23.88 423.86 20.51 422.46 22.47 409.81 16.85 397.16 11.23 389.01 5.89 382.55 3.64 376.08 1.41 371.58 0 371.58 0 371.58 0 371.78 0.24 372.05 0.61 376.12 3.99 386.26 8.49 392.24 11.73 399.62 15.74 405.31 29.44 405.52 26.28 405.73 23.12 404.68 18.06 404.68 18.06 404.68 18.06 406.16 18.69 407.21 22.07 408.26 25.44 416.06 39.78 416.06 38.09 416.06 36.4 414.58 26.71 416.9 30.29 419.22 33.87 420.06 43.99 419.64 47.79 419.22 51.58 420.48 56.85 421.75 54.33 423.01 51.8 425.33 48.22 425.33 48.22 425.33 48.22 423.64 54.76 424.91 61.92 426.17 69.09 422.8 69.72 424.28 70.56 425.76 71.4 427.86 66.77 427.86 66.77 427.86 66.77 427.65 73.09 427.23 74.78 426.81 76.47 421.12 77.31 420.27 78.15 419.43 78.99 422.17 82.79 422.17 87 422.17 91.22 413.95 93.11 413.32 94.8 412.69 96.49 414.16 99.65 415.43 101.55 416.7 103.45 416.27 107.03 416.27 107.03L413.11 106.4C413.11 106.4 416.69 111.46 416.69 112.3 416.69 113.14 416.69 117.78 419.22 124.11 421.75 130.43 419.36 133.81 419.36 133.81L420.34 133.27 425.54 130.43 423.57 129.31C423.57 129.31 423.57 126.78 426.66 123.69 429.75 120.6 434.25 111.04 434.25 111.04 434.25 111.04 432.84 112.16 432.28 111.04 432.28 111.04 435.93 106.82 437.06 102.61 438.18 98.39 442.4 95.58 440.71 90.52 439.02 85.46 444.65 77.03 444.65 77.03 444.65 77.03 447.19 73.08 444.1 71.39Z" fill="#1B171E" opacity="0.59"/><path d="M411.78 136.6C411.78 136.6 394.63 132.95 387.33 137.44 380.02 141.94 381.43 145.87 385.36 150.37 389.3 154.87 392.95 158.52 396.32 158.52 399.69 158.52 406.72 159.36 407.28 157.68 407.84 156 421.89 142.79 411.78 136.6Z" fill="#090607"/><path d="M392.66 140.54C392.66 140.54 394.63 135.76 402.5 137.17 410.37 138.58 405.87 139.7 403.06 142.23 400.25 144.76 390.97 148.41 392.38 141.67" fill="#444444"/><path d="M368.42 95.43C368.42 95.43 366.94 86.79 359.36 82.99 351.77 79.2 347.98 85.31 347.98 86.57 347.98 87.83 348.82 93.74 354.73 96.9 360.64 100.06 367.58 98.59 368.42 95.43Z" fill="#444444"/><path d="M419.43 79.83C419.43 79.83 413.53 81.31 412.9 86.36 412.27 91.42 412.48 96.69 413.95 96.69 415.42 96.69 419.64 95.85 421.33 91.63 423.02 87.41 420.7 79.61 419.43 79.83Z" fill="#444444"/><path d="M352.61 84.04C352.61 84.04 348.39 86.57 351.35 92.47 351.35 92.47 353.67 98.16 363.58 97.53 363.58 97.53 366.32 96.69 365.69 93.1 365.68 93.11 365.05 84.46 352.61 84.04Z" fill="#050303"/><path d="M416.9 81.51C416.9 81.51 422.17 83.62 421.12 88.04 421.12 88.04 421.75 94.79 413.95 96.68 413.95 96.69 412.06 84.88 416.9 81.51Z" fill="#050303"/><path d="M361.04 88.47C361.04 88.47 357.88 86.36 355.98 86.99 354.08 87.62 356.4 91.21 357.46 91.21 358.51 91.21 363.57 92.05 361.04 88.47Z" fill="#FAFAF5"/><path d="M416.69 85.73C416.69 85.73 415.43 88.47 415.43 89.52 415.43 90.57 415.64 91.42 415.64 91.42 415.64 91.42 420.28 86.57 416.69 85.73Z" fill="#E0E0E0"/><path d="M397.7 176.13C392.85 175.2 387.91 171.8 387.18 170.89 386.34 169.84 399.2 164.14 399.2 159.72 399.2 155.3 393.72 152.97 389.29 150.44 384.86 147.91 391.4 138.42 392.03 136.32 392.66 134.21 385.49 136.32 379.8 137.8 374.11 139.28 380.64 150.03 375.58 148.97 370.52 147.92 365.67 128.52 365.67 128.52 365.67 128.52 364.41 128.31 360.4 127.89 356.39 127.47 353.44 132.32 351.55 133.37 349.65 134.42 339.32 133.37 342.27 132.74 345.22 132.11 349.44 131.26 347.33 128.31 345.22 125.36 340.16 126.41 336.58 126.62 333 126.83 323.93 122.61 328.36 123.25 332.79 123.88 339.53 120.51 339.53 120.51 339.53 120.51 331.31 120.09 328.36 118.4 325.41 116.71 324.35 115.03 324.35 115.03 328.14 112.71 331.1 114.19 331.1 114.19 331.1 114.19 337.64 109.97 328.78 109.97 319.92 109.97 316.76 105.33 316.76 105.33 316.76 105.33 318.02 105.75 321.61 105.96 325.19 106.17 332.15 105.75 328.36 105.12 324.57 104.49 320.35 100.9 317.61 99.85 314.87 98.8 307.28 101.33 307.28 101.33 307.28 101.33 308.12 99.85 313.82 97.32 319.51 94.79 325.84 97.11 325.84 97.11 325.84 97.11 318.88 88.47 314.46 90.15 310.03 91.84 307.29 88.67 307.29 88.67 312.98 88.88 312.77 84.03 308.34 82.98 304.3 82.02 299.4 81.23 298.57 81.1 299.02 81.14 300.75 81.1 305.81 79.18 311.92 76.86 313.61 73.91 313.61 73.91 313.61 73.91 305.39 75.39 301.17 74.33 298.04 73.55 292.23 73.7 289.88 73.91 292.22 73.07 297.84 69.95 300.32 69.06 303.27 68.01 310.02 66.74 310.02 66.74 310.02 66.74 307.91 64.21 301.17 63.16 295.64 62.3 293.23 63.27 292.54 63.65 293.12 63.28 294.96 61.99 298.22 58.73 302.23 54.72 303.49 46.71 303.49 46.71 303.49 46.71 302.65 49.87 299.27 50.93 295.9 52 293.79 52 293.79 52 293.79 52 293.77 52.04 293.76 52.06L298.78 52.56C298.78 52.56 297.66 57.62 294.84 57.62 292.03 57.62 289.78 53.68 287.25 53.68 284.72 53.68 283.03 58.46 280.5 59.58 277.97 60.7 283.03 61.55 283.03 61.55 283.03 61.55 285.84 68.58 283.03 71.39 280.22 74.2 277.69 78.7 277.69 78.7 277.69 78.7 281.06 78.42 283.59 78.98 286.12 79.54 281.34 85.16 281.34 85.16 281.34 85.16 289.21 84.88 290.9 86 292.59 87.12 288.09 92.46 288.09 92.46 288.09 92.46 292.59 93.3 295.4 94.71 298.21 96.12 293.99 103.14 293.99 103.14 293.99 103.14 297.93 100.89 300.17 101.73 302.42 102.57 297.08 108.76 297.08 108.76 297.08 108.76 297.64 108.48 301.3 109.6 304.95 110.72 313.95 111.29 313.11 112.69 312.27 114.1 307.49 118.31 307.49 118.31 307.49 118.31 308.05 118.31 313.95 119.15 319.85 119.99 313.11 125.61 313.11 125.61 313.11 125.61 320.42 127.58 324.07 129.55 327.72 131.52 321.54 135.73 331.38 140.51 341.22 145.29 347.96 149.79 353.3 156.53 358.64 163.28 364.54 176.77 381.41 176.21 389.83 175.95 394.6 176.23 397.7 176.13Z" fill="#1B171E" opacity="0.26"/><g><path d="M61.27 381.98C62.26 381.98 65.41 375.91 66.16 374.43 65.61 375.41 63.63 378.11 59.86 374.11 55.36 369.33 51.15 364.55 52.83 362.87 54.52 361.18 56.48 357.53 56.48 357.53 56.48 357.53 48.05 354.72 47.49 353.03 46.93 351.34 59.01 347.97 56.2 346.28 53.39 344.59 46.08 347.69 45.52 344.03 44.96 340.38 45.52 338.69 45.52 338.69 45.52 338.69 42.43 334.47 47.77 328.01 53.11 321.55 50.3 322.95 58.17 320.14 66.04 317.33 66.04 317.33 66.04 317.33L68.01 316.21C68.01 316.21 60.14 319.58 55.92 314.8 51.7 310.02 48.05 305.81 48.05 305.81 48.05 305.81 48.89 303.84 51.99 304.12 55.08 304.4 58.17 297.09 56.49 295.69 54.8 294.28 53.68 294.28 47.21 291.47 40.75 288.66 51.14 288.1 51.99 288.1 52.83 288.1 51.43 284.73 44.12 281.07 36.81 277.42 31.75 275.45 31.75 275.45 31.75 275.45 32.31 267.86 34.28 266.74 36.25 265.62 50.02 251.28 51.71 249.31 53.4 247.34 41.87 254.93 36.81 255.49 31.75 256.05 19.38 252.4 18.26 247.62 17.44 244.15 24.01 240.7 27.69 239.05 24.87 239.87 20.11 240.08 16.58 234.12 11.24 225.13 9.83 219.5 9.83 219.5 9.83 219.5 2.24 208.26 11.52 204.88 20.8 201.51 17.14 189.14 17.14 189.14 17.14 189.14 14.33 194.76 13.49 195.32 12.65 195.88 12.37 190.26 12.37 190.26 12.37 190.26 5.73 191.9 1.23 196.81 0.47 197.8 0.01 198.41 0.01 198.41L7.32 195.6C7.32 195.6-0.55 217.52 1.14 223.15 2.83 228.77 13.51 250.7 16.32 259.13 19.13 267.56 10.14 273.75 10.14 273.75 10.14 273.75 15.76 271.22 17.03 269.74 18.29 268.26 19.98 274.59 20.19 280.7 20.4 286.81 17.03 293.98 18.71 297.35 18.71 297.35 19.13 292.29 21.66 290.82 24.19 289.35 43.37 291.24 43.37 306 43.37 320.76 37.26 337.41 42.32 349.85 46.74 360.72 56.95 376.89 60.44 383.89 60.6 382.74 60.92 381.98 61.27 381.98Z" fill="#1B171E"/><path d="M66.17 374.44C66.28 374.25 66.33 374.12 66.33 374.12 66.33 374.12 66.27 374.23 66.17 374.44Z" fill="#D1C1A8"/><path d="M277.35 353.87C281.57 359.35 276.3 365.04 276.3 365.04 276.3 365.04 283.05 363.78 285.79 366.09 288.53 368.41 281.78 372.84 281.78 372.84 281.78 372.84 286.84 373.05 288.32 374.1 289.8 375.15 286 377.68 286 379.58 286 381.48 291.48 382.53 293.8 382.53 296.12 382.53 303.08 381.48 304.55 384.22 306.03 386.96 316.99 394.55 329 393.71 341.02 392.87 373.27 398.14 375.8 395.4 376.55 394.58 377.05 393.78 377.41 393.03 377.28 392.98 377.2 392.94 377.2 392.94 377.2 392.94 373.26 392.38 366.8 391.53 360.34 390.69 322.95 390.69 319.86 389.84 316.77 389 317.33 385.62 317.33 385.62 317.33 385.62 312.27 385.9 311.15 385.9 310.03 385.9 312.84 379.72 313.68 377.75 314.52 375.78 309.46 378.87 303.28 378.59 297.1 378.31 292.88 382.81 293.72 377.47 294.56 372.13 287.54 365.66 289.5 363.98 291.47 362.29 294.56 358.36 287.81 357.23 281.06 356.11 282.47 353.58 284.16 348.24 285.85 342.9 283.88 342.9 281.63 337.56 279.38 332.22 271.51 329.13 271.51 329.13 271.51 329.13 276.01 326.04 279.94 326.88 283.88 327.72 280.22 322.38 275.72 319.85 271.22 317.32 265.6 305.8 270.38 306.36 275.16 306.92 284.71 301.86 286.4 301.02 288.09 300.18 281.62 300.18 275.16 296.8 268.7 293.43 272.35 290.9 274.32 290.34 276.29 289.78 267.29 289.78 261.95 285 256.61 280.22 264.48 279.94 264.48 279.94 264.48 279.94 256.61 275.72 257.17 267.01 257.73 258.3 256.89 261.11 251.83 247.05 246.77 233 249.3 228.78 249.3 228.78 249.3 228.78 244.24 232.43 244.24 241.15 244.24 249.86 244.24 257.45 237.49 261.95 230.74 266.45 224.28 263.07 220.06 268.7 215.84 274.32 210.78 281.63 210.78 281.63 210.78 281.63 216.96 277.13 219.77 278.82 222.58 280.51 217.8 286.41 211.62 286.41 205.44 286.41 199.81 276.01 199.81 276.01L189.69 273.2C189.69 273.2 193.06 276.85 194.19 281.63 195.31 286.41 185.2 277.41 184.91 274.32 184.63 271.23 180.13 248.18 179.85 249.59 179.57 251 177.04 265.33 179.01 270.11 180.98 274.89 184.07 282.2 180.98 283.04 177.89 283.88 169.74 267.86 169.74 265.33 169.74 262.8 169.74 248.47 170.58 243.97 171.42 239.47 155.4 222.61 155.4 222.61 155.4 222.61 164.11 238.63 161.86 251.84 159.61 265.05 156.8 261.68 154.83 273.76 152.86 285.85 156.8 291.75 156.8 291.75 156.8 291.75 149.21 281.35 146.12 277.7 143.03 274.05 138.81 255.78 138.81 255.78 138.81 255.78 135.72 272.08 139.65 280.8 143.58 289.51 148.64 296.26 143.3 302.44 137.96 308.62 140.77 316.77 133.18 318.18 125.59 319.59 122.5 317.06 122.5 317.06 122.5 317.06 125.59 324.09 128.68 324.09 131.77 324.09 119.97 329.99 114.06 333.37 108.16 336.74 104.22 339.55 100.01 342.08 95.79 344.61 84.83 352.48 84.83 352.48 84.83 352.48 93.54 350.23 98.6 347.98 103.66 345.73 107.59 347.42 105.63 351.07 103.66 354.72 99.17 359.78 99.17 359.78 99.17 359.78 102.82 357.53 113.22 362.31 123.62 367.09 119.68 371.02 123.34 373.83 126.99 376.64 141.33 375.8 143.02 377.76 143.98 378.88 144.03 381.89 143.89 384.5 144.46 383.93 144.84 383.23 144.91 382.33 145.33 377.27 147.86 373.69 142.8 370.74 137.74 367.79 128.68 367.37 121.93 360.83 115.18 354.29 114.76 351.77 109.7 349.87 104.64 347.97 133.31 334.9 134.36 329.84 135.41 324.78 134.99 334.9 134.36 337.64 133.73 340.38 139 333.85 141.74 323.31 144.48 312.77 152.28 311.72 152.28 306.66 152.28 301.6 158.82 309.82 158.82 309.82 158.82 309.82 160.93 303.71 160.93 295.27 160.93 286.84 164.3 296.32 166.62 285.36 168.94 274.4 169.57 291.68 172.31 293.79 172.31 293.79 172.1 289.78 174.63 289.15 177.16 288.52 187.28 295.47 189.39 296.53 191.5 297.59 190.65 294.63 192.34 293.58 194.03 292.53 205.62 296.53 208.99 295.9 212.36 295.27 218.05 290.21 218.05 290.21 218.05 290.21 226.48 297.59 229.43 287.05 232.38 276.51 243.13 272.08 244.4 265.97 245.66 259.86 246.3 270.82 245.45 274.19 244.61 277.56 251.14 271.24 251.14 271.24 251.14 271.24 249.03 280.09 247.77 281.36 246.51 282.62 253.25 288.53 258.31 292.32 263.37 296.11 259.36 299.28 262.32 306.65 265.28 314.02 263.8 321.83 262.74 323.3 261.69 324.78 265.9 325.83 265.9 325.83L261.26 334.47C261.26 334.47 268.01 334.47 269.06 334.68 270.11 334.89 266.11 341 266.11 347.12 266.18 353.24 273.13 348.39 277.35 353.87Z" fill="#1B171E"/><path d="M27.7 239.06C29.14 238.64 30.08 238.07 30.08 238.07 30.08 238.07 29.09 238.44 27.7 239.06Z" fill="#D1C1A8"/><path d="M134.63 383.67C131.82 381.98 126.2 381.7 126.2 381.7 126.2 381.7 133.14 383.81 134.64 388.02 135.3 387.73 136.07 387.49 136.89 387.27 136.8 386.22 136.34 384.69 134.63 383.67Z" fill="#1B171E"/><path d="M399.42 381.02C398.79 380.05 397.69 378.82 395.75 377.49 391.25 374.4 384.51 375.8 384.51 375.8 384.51 375.8 394.09 378.57 396.57 383.37 397.61 382.61 398.63 381.85 399.42 381.02Z" fill="#1B171E"/><path d="M390.21 389.87C389.34 388.41 387.51 386.47 383.67 385.35 376.92 383.38 372.15 383.38 372.15 383.38 372.15 383.38 379.33 386.65 381.05 389.92 383.56 390.27 387.69 390.78 390.21 389.87Z" fill="#1B171E"/><path d="M121.42 387.88C119.17 385.63 113.55 383.66 113.55 383.66 113.55 383.66 118.49 387.36 119.8 392.23 120.58 392.22 122.09 392.17 123.83 392.02 123.35 390.68 122.57 389.03 121.42 387.88Z" fill="#231E1B"/></g><path d="M357.46 145.81C357.46 145.81 369.05 161.83 373.69 162.89 378.33 163.94 389.71 161.84 392.45 162.26 395.19 162.68 397.51 158.25 397.51 158.25L402.57 158.88C402.57 158.88 400.67 161.83 403.83 161.83 406.99 161.83 411.63 159.51 411.84 158.25 412.05 156.99 410.65 165.28 410.65 165.28 410.65 165.28 408.68 167.74 399.83 169.85 390.98 171.96 382.97 172.8 374.74 169.01 366.52 165.2 355.77 150.45 357.46 145.81Z" fill="#090607"/></g></svg>