<svg width="467.89" height="326.92" viewBox="0 0 467.89 326.92" xmlns="http://www.w3.org/2000/svg" xmlns:xlink="http://www.w3.org/1999/xlink" overflow="visible"><defs></defs><path d="M467.89 221.76C467.89 279.86 363.14 326.92 233.96 326.92 104.73 326.92 0 279.86 0 221.76 0 163.68 104.73 116.58 233.95 116.58 363.14 116.59 467.89 163.68 467.89 221.76Z" opacity="0.15"/><g><path d="M467.89 217.11C467.89 272.64 363.14 317.62 233.96 317.62 104.73 317.62 0 272.64 0 217.11 0 161.6 104.73 116.59 233.95 116.59 363.14 116.59 467.89 161.6 467.89 217.11Z" fill="#FCD1AC"/><path d="M430.98 214.79C430.98 260.48 342.75 297.48 233.95 297.48 125.11 297.48 36.9 260.48 36.9 214.79 36.9 169.11 125.11 132.08 233.95 132.08 342.76 132.08 430.98 169.11 430.98 214.79Z" fill="#FCB97C"/><path d="M390.86 214.79C390.86 251.17 320.61 280.66 233.96 280.66 147.28 280.66 77.03 251.18 77.03 214.79 77.03 178.41 147.28 148.92 233.96 148.92 320.6 148.92 390.86 178.41 390.86 214.79Z" fill="#FCD1AC"/><path d="M345.62 214.79C345.62 240.68 295.62 261.67 233.95 261.67 172.26 261.67 122.25 240.68 122.25 214.79 122.25 188.89 172.27 167.91 233.95 167.91 295.62 167.91 345.62 188.89 345.62 214.79Z" fill="#FCB97C"/><path d="M334.87 214.79C334.87 238.19 289.67 257.15 233.95 257.15 178.2 257.15 133.02 238.19 133.02 214.79 133.02 191.38 178.19 172.42 233.95 172.42 289.67 172.42 334.87 191.38 334.87 214.79Z" fill="#FCD1AC"/><path d="M350.11 19.68C350.11 19.68 367.53 34.01 365.26 54.96 363.01 75.93 363.02 74.76 353.13 80.68 343.24 86.58 357.78 119.36 357.78 119.36 357.78 119.36 393.9 60.43 381.09 31.46 368.3 2.51 359.55 14.28 359.55 14.28L350.11 19.68Z" fill="#DA8329"/><path d="M329.46 19.23C329.46 19.23 346.07-2.86 360.56 3.37 375.03 9.59 403.65 38.55 384.46 77.95 365.26 117.35 360.21 159.11 333.94 159.11 307.67 159.11 339.01 139.24 339.01 139.24 339.01 139.24 361.57 109.61 369.3 92.1 377.04 74.59 384.79 49.99 377.73 34.85 370.65 19.69 369.65 23.06 368.3 22.72 366.96 22.38 363.48 31.31 352.08 34.93 352.08 34.93 334.73 31.24 329.46 19.23Z" fill="#F99B2F"/><path d="M362.23 56.98 318.44 56.98 240.65 56.98 233.92 56.98 144.72 56.98 100.95 56.98C100.95 56.98 91.26 164.5 139.55 209.96L139.91 209.95C143.92 230.52 183.39 246.67 231.57 246.67 279.75 246.67 319.23 230.52 323.23 209.95L323.61 209.96C371.91 164.49 362.23 56.98 362.23 56.98Z" fill="#F99B2F"/><path d="M362.23 56.98C362.23 88.47 303.73 113.98 231.57 113.98 159.39 113.98 100.91 88.47 100.91 56.98 100.91 25.51 159.39 0 231.57 0 303.73 0 362.23 25.51 362.23 56.98Z" fill="#E1E5E1"/><path d="M354.51 54.96C354.51 83.46 299.47 106.57 231.57 106.57 163.67 106.57 108.63 83.47 108.63 54.96 108.63 26.46 163.67 3.36 231.57 3.36 299.47 3.36 354.51 26.46 354.51 54.96Z" fill="#FCD1AC"/><path d="M362.23 56.98 361.14 56.98C354.68 84.14 327.19 184.46 267.69 212.04 201.16 242.85 163.85 217.49 131.78 201.49 134.21 204.48 136.77 207.33 139.55 209.96L139.91 209.95C143.92 230.52 183.39 246.67 231.57 246.67 279.75 246.67 319.23 230.52 323.23 209.95L323.61 209.96C371.91 164.49 362.23 56.98 362.23 56.98Z" fill="#DA8329"/><path d="M231.57 0C159.39 0 100.91 25.51 100.91 56.98 100.91 88.47 159.39 113.98 231.57 113.98 303.73 113.98 362.23 88.47 362.23 56.98 362.23 25.51 303.73 0 231.57 0ZM231.57 106.57C163.67 106.57 108.63 83.47 108.63 54.96 108.63 26.46 163.67 3.36 231.57 3.36 299.47 3.36 354.51 26.46 354.51 54.96 354.51 83.46 299.47 106.57 231.57 106.57Z" fill="#FAA958"/><path d="M231.57 3.37C217.02 3.37 203.07 4.43 190.12 6.38 210.53 12.42 235.21 23.73 238.85 43.58 243.66 69.84 244.81 87.46 226.71 106.53 228.32 106.56 229.94 106.57 231.57 106.57 299.47 106.57 354.51 83.47 354.51 54.96 354.51 26.46 299.47 3.37 231.57 3.37Z" fill="#FEE8D9"/><path d="M226.74 240.31C278.34 238.29 303.76 219.86 311.19 226.62 317.46 221.9 321.58 216.58 323 210.89L321.36 211.46C321.36 211.46 228.47 263.23 139.91 209.94 139.91 209.94 167.89 242.61 226.74 240.31Z" fill="#B7763A"/><path d="M233.95 310.12C106.72 310.12 3.23 267.58 0.07 214.56 0.03 215.4 0 216.26 0 217.11 0 272.64 104.73 317.62 233.95 317.62 363.13 317.62 467.88 272.64 467.88 217.11 467.88 216.25 467.85 215.4 467.8 214.55 464.65 267.58 361.15 310.12 233.95 310.12Z" fill="#FCB97C"/></g></svg>