<svg width="288.09" height="469.19" viewBox="0 0 288.09 469.19" xmlns="http://www.w3.org/2000/svg" xmlns:xlink="http://www.w3.org/1999/xlink" overflow="visible"><defs></defs><path d="M66.24 416.89C61.58 423.87 62.19 433.49 66.26 440.83 70.33 448.17 77.34 453.48 84.84 457.25 94.99 462.34 106.21 464.95 117.43 466.65 127.03 468.11 136.73 468.94 146.44 469.14 157.86 469.38 169.3 468.75 180.63 467.26 186.29 466.52 191.93 465.56 197.52 464.39 197.96 464.3 198.39 464.21 198.83 464.13 201.32 463.64 203.82 463.21 206.26 462.5 206.53 462.42 206.79 462.34 207.05 462.25 207.1 462.23 207.16 462.21 207.21 462.19 208.35 461.8 209.49 461.43 210.63 461.05 211.69 460.7 212.87 460.42 213.86 459.89 214.19 459.71 214.47 459.46 214.79 459.26 215.24 458.97 215.74 458.83 216.24 458.65 217.35 458.27 218.44 457.82 219.5 457.32 221.63 456.32 223.67 455.12 225.62 453.8 226.14 453.45 226.72 453.11 227.16 452.66 227.42 452.39 227.6 452.05 227.86 451.77 228.26 451.33 228.79 450.99 229.25 450.61 230.22 449.81 231.17 448.98 232.1 448.13 233.93 446.43 235.65 444.62 237.25 442.71 238.76 440.92 240.16 439.04 241.45 437.08 242.1 436.1 242.71 435.11 243.3 434.09 243.53 433.69 243.84 433.41 244.09 433.04 244.64 432.25 244.91 431.15 245.23 430.25 245.72 428.83 246.12 427.37 246.39 425.89 246.62 424.65 246.75 423.39 246.78 422.12 246.79 421.65 246.91 421.21 246.93 420.76 246.95 420.42 246.83 420.11 246.73 419.79 246.33 418.61 245.75 417.48 244.98 416.49 241.96 412.6 236.68 411.44 231.84 410.53 226.94 409.61 222.04 408.7 217.14 407.78 211.24 406.68 205.33 405.57 199.43 404.47 198.16 404.23 196.8 403.81 195.5 403.88 194.68 403.93 193.9 404.24 193.09 404.32 190.75 404.57 188.31 404.33 185.96 404.28 182.4 404.21 178.83 404.12 175.27 404.05 167.86 403.92 160.43 403.91 153.04 404.57 143.07 405.45 133.22 407.53 123.23 408.01 116.63 408.33 110.02 407.94 103.42 408.21 97.83 408.44 92.28 409.13 86.76 410.05 83.97 410.52 81.19 411.04 78.41 411.59 76.02 412.07 73.6 412.76 71.16 412.89 68.89 413.05 67.42 415.13 66.24 416.89Z" opacity="0.15"/><g><radialGradient cx="154.655" cy="296.583" r="44.7066" gradientUnits="userSpaceOnUse" id="SVGID_1_" gradientTransform="matrix(0.9991 0.043 -0.0738 1.7162 22.035 -219.054)"><stop offset="0.00933454" stop-color="#FFFFFF"/><stop offset="0.2654" stop-color="#F8F8F8" stop-opacity="0.7415"/><stop offset="1" stop-color="#EDEEEF" stop-opacity="0"/></radialGradient><path d="M81.4 375.78C81.4 375.78 67.21 388.32 66.22 407.79 65.23 427.26 90.64 459.27 156.63 458.61 222.62 457.95 240.44 420.66 243.74 415.05 247.04 409.44 245.39 391.95 235.49 381.06 225.6 370.17 81.4 375.78 81.4 375.78Z" fill="#CE8C65"/><path d="M232.31 430.93C239.28 423.6 242.52 417.13 243.75 415.04 247.05 409.43 245.4 391.94 235.5 381.05 225.6 370.16 81.4 375.77 81.4 375.77 81.4 375.77 67.21 388.31 66.22 407.78 65.52 421.48 77.92 441.37 108.31 451.74 78.75 438.62 72.2 414.44 72.49 409.43 72.82 403.82 75.13 395.24 79.75 393.26 84.37 391.28 103.51 416.69 159.27 419.99 215.04 423.29 232.19 398.87 236.48 395.57 240.77 392.27 242.42 401.84 242.09 411.41 241.95 415.67 237.36 423.53 232.31 430.93Z" fill="#B27255"/><path d="M86.46 38.98C86.46 38.98 56.54 9.94 22.22 36.34-12.1 62.74 1.11 115.54 10.79 139.29 20.47 163.04 46.87 236.52 47.31 242.68 47.75 248.84 57.43 203.96 57.43 203.96 57.43 203.96 23.55 118.17 20.47 107.17 17.39 96.17 14.31 62.3 35.42 47.34 56.53 32.38 86.46 64.5 86.46 64.5 86.46 64.5 91.74 45.14 86.46 38.98Z" fill="#CC8A63"/><path d="M24.74 34.51C34.69 30.46 46.73 28.62 55.23 30.62 65.19 32.96 79.83 45.45 88.5 53.53 89.1 48.05 89.02 41.96 86.46 38.98 86.46 38.98 57.99 11.36 24.74 34.51Z" fill="#7E4423"/><path d="M35.42 47.34C37.15 46.12 38.94 45.24 40.76 44.6 40.72 44.39 40.7 44.26 40.7 44.26-6.82 67.58 19.14 122.57 20.02 124.77 20.68 126.42 42.78 188.69 53.86 219.92 55.8 211.47 57.42 203.97 57.42 203.97 57.42 203.97 23.54 118.18 20.46 107.18 17.38 96.18 14.31 62.3 35.42 47.34Z" fill="#7E4423"/><path d="M65.78 30.18C65.78 30.18 92.62 69.34 85.14 109.37 77.66 149.4 39.82 211.01 40.26 259.41 40.7 307.81 53.02 399.32 151.57 414.72 250.12 430.12 274.32 299.89 273.44 271.73 272.56 243.57 264.64 193.42 241.76 153.82 218.88 114.22 231.64 55.27 247.04 36.79 262.44 18.31 70.18 15.22 65.78 30.18Z" fill="#DEA47F"/><path d="M84.26 43.38C84.26 43.38 80.74 46.46 82.06 53.94 83.38 61.42 96.58 90.46 82.5 130.93 68.42 171.4 50.82 201.76 50.82 201.76 50.82 201.76 86.02 146.76 90.42 115.97 94.82 85.18 85.58 59.21 86.9 55.25 88.22 51.29 92.18 42.05 92.18 42.05L84.26 43.38Z" fill="#B27255"/><path d="M273.45 271.72C272.57 243.56 264.65 193.41 241.77 153.81 218.89 114.21 231.65 55.26 247.05 36.78 262.45 18.3 70.18 15.22 65.78 30.18 65.78 30.18 92.62 69.34 85.14 109.37 77.66 149.41 39.82 211 40.26 259.4 40.63 300.27 49.48 371.9 111.59 402.45 86.02 358 67.19 252.86 91.3 195.6 117.7 132.9 95.26 123.67 99.88 89.35 104.5 55.03 113.58 59.03 130.24 60.31 155.98 62.29 176.44 51.73 192.94 62.29 209.44 72.85 206.14 86.05 204.82 121.03 203.5 156.01 236.5 205.5 238.48 283.38 240.09 346.72 194.98 398.27 178.09 415.31 254.56 405.9 274.24 297.16 273.45 271.72Z" fill="#CC825C" opacity="0.31"/><g><path d="M285.77 17.42C285.77 17.42 286.21 15.66 279.61 13.02 273.01 10.38 251.45 15.22 225.49 11.26 199.53 7.3 80.74-16.89 59.62 20.94 38.5 58.77 162.57 53.94 188.53 46.9 214.49 39.86 254.09 32.82 264.2 32.82 274.33 32.82 295.01 22.26 285.77 17.42Z" fill="#F8D1AE"/><path d="M285.77 17.42C285.77 17.42 286.21 15.66 279.61 13.02 274.16 10.84 258.52 13.75 238.63 12.61 238.68 15.9 237.77 19.52 234.52 22.37 226.6 29.3 227.92 31.28 222.31 33.92 216.7 36.56 125.3 49.43 105.17 42.5 85.04 35.57 91.63 22.04 80.08 16.43 75.88 14.39 74.44 11.3 74.29 8.2 67.75 11.32 62.67 15.48 59.62 20.94 38.5 58.78 162.57 53.94 188.53 46.9 214.49 39.86 254.09 32.82 264.2 32.82 274.31 32.82 295.01 22.26 285.77 17.42Z" fill="#CA7B52" opacity="0.13"/><path d="M89.98 34.14C86.46 24.9 72.82 17.42 70.62 13.46 70.06 12.45 70.07 11.36 70.4 10.29 65.73 13.11 62.03 16.62 59.62 20.94 49.57 38.94 72.4 47.28 101.87 50.32 97.6 46.52 92.42 40.55 89.98 34.14Z" fill="#824B2F"/><path d="M285.77 17.42C285.77 17.42 286.21 15.66 279.61 13.02 274.36 10.92 259.62 13.55 240.74 12.72 242.02 14.31 242.71 16.59 240.89 19.62 236.93 26.22 227.25 29.74 225.93 34.58 225.53 36.04 224.85 37.46 224.22 38.76 241.91 35.29 258.22 32.83 264.21 32.83 274.33 32.82 295.01 22.26 285.77 17.42Z" fill="#824B2F"/><path d="M265.2 30.18C255.08 30.18 215.48 37.22 189.53 44.26 164.58 51.03 49.07 55.75 58.81 22.54 42.05 58.64 162.95 53.84 188.53 46.9 214.49 39.86 254.09 32.82 264.2 32.82 272.63 32.82 288.36 25.5 288.06 20.25 284.51 25.02 272.28 30.18 265.2 30.18Z" fill="#F8D1AE"/></g><path d="M218.01 16.1C218.01 16.1 154.65 3.56 128.92 4.88 103.19 6.2 91.3 10.16 91.3 10.16 91.3 10.16 101.2 20.72 101.86 23.36 102.52 26 120.34 14.12 144.1 14.12 167.86 14.12 218.01 16.1 218.01 16.1Z" fill="#FFFFFF" opacity="0.44"/><path d="M186.33 218.71C186.33 218.71 211.41 301.86 194.91 360.6 178.41 419.34 147.39 406.8 138.81 406.8 130.23 406.8 93.93 338.16 109.11 267.55 124.29 196.94 182.37 216.73 186.33 218.71Z" fill="url(#SVGID_1_)" opacity="0.44"/><path d="M236.71 379.89C226.5 387.22 205.1 397.49 164.55 398.55 129.08 399.47 99.98 389.54 81.13 380.56 97.44 397.12 120.1 409.8 151.57 414.72 190.59 420.81 217.95 404.07 236.71 379.89Z" fill="#A6512F"/><path d="M223.29 389.64C223.29 389.64 159.6 425.61 90.64 387 90.64 387 103.84 398.55 113.41 402.18 122.98 405.81 148.72 414.06 171.82 413.4 194.91 412.73 222.96 394.26 223.29 389.64Z" fill="#220D0C"/><path d="M229.23 410.1C229.23 410.1 169.83 433.2 130.24 418.68 90.64 404.16 82.72 416.7 90.64 426.6 98.56 436.5 156.64 464.22 198.21 437.16 239.78 410.1 239.79 408.78 229.23 410.1Z" fill="#FFFFFF" opacity="0.11"/></g></svg>