<svg width="410.82" height="786.35" viewBox="0 0 410.82 786.35" xmlns="http://www.w3.org/2000/svg" xmlns:xlink="http://www.w3.org/1999/xlink" overflow="visible"><defs></defs><g><g><linearGradient x1="-191.167" y1="-386.575" x2="-212.151" y2="-387.7" gradientUnits="userSpaceOnUse" id="SVGID_1_" gradientTransform="matrix(0.3113 -0.9503 0.9503 0.3113 778.944 458.965)"><stop offset="0.00933372" stop-color="#F6CEB8"/><stop offset="0.0108" stop-color="#F5CDB6"/><stop offset="0.0472" stop-color="#EFBDA2"/><stop offset="0.0867" stop-color="#EBB293"/><stop offset="0.1316" stop-color="#E9AB8B"/><stop offset="0.1933" stop-color="#E8A989"/><stop offset="0.2131" stop-color="#E9AD8D"/><stop offset="0.3134" stop-color="#EFBB9F"/><stop offset="0.4265" stop-color="#F2C6AD"/><stop offset="0.5615" stop-color="#F5CCB5"/><stop offset="0.7764" stop-color="#F6CEB8"/></linearGradient><linearGradient x1="650.797" y1="119.909" x2="695.762" y2="140.893" gradientUnits="userSpaceOnUse" id="SVGID_2_" gradientTransform="matrix(0.9981 0.0617 -0.0617 0.9981 -297.111 246.171)"><stop offset="0.00933372" stop-color="#F6CEB8"/><stop offset="0.0108" stop-color="#F5CDB6"/><stop offset="0.0472" stop-color="#EFBDA2"/><stop offset="0.0867" stop-color="#EBB293"/><stop offset="0.1316" stop-color="#E9AB8B"/><stop offset="0.1933" stop-color="#E8A989"/><stop offset="0.2131" stop-color="#E9AD8D"/><stop offset="0.3134" stop-color="#EFBB9F"/><stop offset="0.4265" stop-color="#F2C6AD"/><stop offset="0.5615" stop-color="#F5CCB5"/><stop offset="0.7764" stop-color="#F6CEB8"/></linearGradient><linearGradient x1="110.163" y1="297.415" x2="111.662" y2="256.946" gradientUnits="userSpaceOnUse" id="SVGID_9_"><stop offset="0.00933372" stop-color="#F6CEB8"/><stop offset="0.0108" stop-color="#F5CDB6"/><stop offset="0.0472" stop-color="#EFBDA2"/><stop offset="0.0867" stop-color="#EBB293"/><stop offset="0.1316" stop-color="#E9AB8B"/><stop offset="0.1933" stop-color="#E8A989"/><stop offset="0.2131" stop-color="#E9AD8D"/><stop offset="0.3134" stop-color="#EFBB9F"/><stop offset="0.4265" stop-color="#F2C6AD"/><stop offset="0.5615" stop-color="#F5CCB5"/><stop offset="0.7764" stop-color="#F6CEB8"/></linearGradient><linearGradient x1="167.039" y1="342.29" x2="168.221" y2="310.365" gradientUnits="userSpaceOnUse" id="SVGID_10_"><stop offset="0.00933372" stop-color="#F6CEB8"/><stop offset="0.0108" stop-color="#F5CDB6"/><stop offset="0.0472" stop-color="#EFBDA2"/><stop offset="0.0867" stop-color="#EBB293"/><stop offset="0.1316" stop-color="#E9AB8B"/><stop offset="0.1933" stop-color="#E8A989"/><stop offset="0.2131" stop-color="#E9AD8D"/><stop offset="0.3134" stop-color="#EFBB9F"/><stop offset="0.4265" stop-color="#F2C6AD"/><stop offset="0.5615" stop-color="#F5CCB5"/><stop offset="0.7764" stop-color="#F6CEB8"/></linearGradient><path d="M330.14 519.37C330.14 519.37 351.03 525.93 358.26 526.72 365.49 527.51 371.67 531.51 368.8 537.27 365.93 543.03 359.43 562.2 358.5 568.99 357.57 575.78 353.56 579.59 349.52 577.48 349.52 577.48 352.67 567.87 353.13 565.26 353.59 562.65 355.04 544.99 351.35 541.81 347.66 538.63 330.86 535.89 325.44 533.72 320.02 531.55 325.06 521.14 330.14 519.37Z" fill="url(#SVGID_1_)"/><path d="M345.89 427.22C345.89 427.22 357.16 413.18 361.04 410.79 364.92 408.4 361.72 399.57 367.14 396.9 372.56 394.23 378.58 401.36 393.51 407.54 408.45 413.72 411.07 415.01 410.79 419.5 410.51 423.99 410.51 423.99 410.51 423.99 410.51 423.99 406.33 418.75 400.06 416.91 393.79 415.07 374.02 413.1 371.91 416.72 369.81 420.34 356.31 438.28 356.31 438.28L345.89 427.22Z" fill="url(#SVGID_2_)"/><path d="M191.95 394.81C191.95 394.81 201.15 516.2 218.31 517.42 235.47 518.64 328.66 540.1 331.73 535.2 334.8 530.3 340.31 523.55 339.7 521.1 339.09 518.65 253.26 492.29 248.97 484.93 244.68 477.57 241 456.73 241 456.73 241 456.73 257.55 480.03 284.53 486.16 311.5 492.29 374.65 426.08 374.65 426.08 374.65 426.08 355.65 410.14 350.74 411.98 345.84 413.82 314.57 448.76 302.92 449.99 291.27 451.22 293.72 387.46 279.62 384.39 265.52 381.33 195.63 386.23 191.95 394.81Z" fill="#DBA1C9"/><path d="M284.52 486.16C311.49 492.29 374.64 426.08 374.64 426.08 374.64 426.08 362.87 416.21 355.47 412.9 353.35 412.73 351.37 412.62 349.67 412.59 349.02 413.04 348.2 413.7 347.23 414.53 352.26 415.55 361.15 417.49 361.15 425.46 361.15 437.11 351.34 430.98 342.76 442.63 334.18 454.28 298.01 472.67 280.23 470.83 262.45 468.99 227.51 434.05 227.51 434.05 227.51 434.05 229.35 448.15 230.58 474.51 231.81 500.87 261.23 502.1 279.63 507.62 294.15 511.98 325.09 522.44 337.47 526.66 338.96 524.3 339.99 522.24 339.71 521.11 339.1 518.66 253.27 492.3 248.98 484.94 244.69 477.58 241.01 456.74 241.01 456.74 241.01 456.74 257.55 480.03 284.52 486.16Z" fill="#C176AD"/><path d="M231.8 407.07C243.45 405.84 266.13 399.1 273.49 400.33 277.76 401.04 284.92 404.44 290.18 407.17 287.92 395.42 284.96 385.56 279.62 384.39 265.52 381.32 195.63 386.23 191.95 394.81 191.95 394.81 192.7 404.64 194.15 418.72 196.34 416.14 198.66 413.09 200.53 410.75 205.44 404.62 220.15 408.3 231.8 407.07Z" fill="#C176AD"/><path d="M211.83 263.49C211.83 263.49 210.57 267.63 212.35 270.61 212.35 270.61 219.57 271.56 221.87 271.76 221.87 271.76 214.89 286.08 202.67 285.71 190.44 285.34 197.18 273.41 197.18 273.41 197.18 273.41 199.93 271.87 198.79 266.89 198.79 266.89 205.1 260.84 211.83 263.49Z" fill="#F1B699"/><path d="M192.67 261.68C192.67 261.68 194.37 259.32 193.51 259.14 192.83 259 192.83 258.96 192.83 258.96L192.67 261.68Z" fill="#F1B699"/><g><linearGradient x1="234.611" y1="228.664" x2="287.937" y2="228.664" gradientUnits="userSpaceOnUse" id="SVGID_3_"><stop offset="0" stop-color="#3C2415"/><stop offset="1" stop-color="#4E2A1E"/></linearGradient><linearGradient x1="260.937" y1="227.518" x2="279.542" y2="304.234" gradientUnits="userSpaceOnUse" id="SVGID_4_"><stop offset="0"/><stop offset="1" stop-color="#4E2A1E"/></linearGradient><linearGradient x1="150.255" y1="247.292" x2="174.232" y2="234.229" gradientUnits="userSpaceOnUse" id="SVGID_5_"><stop offset="0.00933372" stop-color="#F6CEB8"/><stop offset="0.0108" stop-color="#F5CDB6"/><stop offset="0.0472" stop-color="#EFBDA2"/><stop offset="0.0867" stop-color="#EBB293"/><stop offset="0.1316" stop-color="#E9AB8B"/><stop offset="0.1933" stop-color="#E8A989"/><stop offset="0.2131" stop-color="#E9AD8D"/><stop offset="0.3134" stop-color="#EFBB9F"/><stop offset="0.4265" stop-color="#F2C6AD"/><stop offset="0.5615" stop-color="#F5CCB5"/><stop offset="0.7764" stop-color="#F6CEB8"/></linearGradient><linearGradient x1="139.338" y1="201.51" x2="267.661" y2="201.51" gradientUnits="userSpaceOnUse" id="SVGID_6_"><stop offset="0" stop-color="#3C2415"/><stop offset="1" stop-color="#4E2A1E"/></linearGradient><linearGradient x1="213.333" y1="180.25" x2="188.355" y2="246.007" gradientUnits="userSpaceOnUse" id="SVGID_8_"><stop offset="0" stop-color="#754C29"/><stop offset="1" stop-color="#96634E"/></linearGradient><path d="M153.69 221.24C153.69 221.24 150.34 217.8 147.5 221.48 144.66 225.16 147.41 235.28 152.93 236.38L153.69 221.24Z" fill="#F6CEB8"/><path d="M152.6 224.22C152.6 224.22 150.64 222.08 150.23 224.31 149.82 226.55 151.09 231 152.89 231.78L152.6 224.22Z" fill="#F8B1AB"/><path d="M147.5 221.48C147.5 221.48 151.13 220.81 152.4 223.43 153.67 226.05 152.71 234.55 152.47 235.14 152.24 235.71 150.77 235.5 150.08 234.85 150.92 235.62 151.87 236.17 152.94 236.38L153.7 221.24C153.69 221.24 150.34 217.8 147.5 221.48Z" fill="#F5C0A2"/><path d="M284.02 254.82C284.02 254.82 278.29 258.22 276.38 248.73 274.47 239.25 294.57 216.27 285.64 191.63 276.71 166.99 269.79 160.24 256.76 159.36L241.84 244.87C241.84 244.87 231.47 251.49 235.56 260.14 239.65 268.79 236.31 273.77 236.31 273.77 236.31 273.77 242.18 272.9 241.05 266.79 239.92 260.68 241.44 276.67 248.76 280.26 256.08 283.84 249.41 297.96 249.41 297.96 249.41 297.96 260.73 290.49 261.05 280.76 261.05 280.76 268.63 278.31 266.4 264.25 266.4 264.25 270.93 269.76 274.02 268.49 274.02 268.49 269.21 266.71 268.66 261.69 268.11 256.67 273 253.25 269.63 249.93 269.63 249.94 278.56 261.88 284.02 254.82Z" fill="url(#SVGID_3_)"/><path d="M256.76 159.36C256.76 159.36 278.42 178.38 279 194.22 279.58 210.06 270.13 229.12 271.14 236.27 272.15 243.42 273.43 244.49 273.43 244.49 273.43 244.49 268 241.31 267.14 237.61 266.27 233.91 264.81 250.1 267.22 255.21 267.22 255.21 263.08 251.11 262.23 247.63 262.23 247.63 263.8 259.45 262.27 268.62 260.74 277.79 258.46 278.03 258.46 278.03 258.46 278.03 261.87 271.25 259.08 264.73 259.08 264.73 256.11 268.13 256.86 273.94 257.61 279.75 254.88 285.59 254.88 285.59 254.88 285.59 256.28 273.89 252.06 269.11 247.84 264.32 248.31 254.3 248.25 252.66 248.19 251.02 244.03 254.13 244.53 258.75 244.53 258.75 238.64 252.48 240.02 247.1 241.38 241.72 256.76 159.36 256.76 159.36Z" fill="url(#SVGID_4_)"/><path d="M263.12 177.33C263.12 177.33 266.74 177.37 267.37 173.86 267.99 170.35 269.61 169.32 267.37 168.74 267.37 168.74 266.96 164.04 264.44 162.43 261.92 160.82 256.44 158.19 254.6 158.19 252.76 158.19 251.08 159.26 251.08 159.26L263.12 177.33Z" fill="#E5CC61"/><path d="M263.05 169.31C263.28 166.56 262.42 165.93 261.1 164.38 259.78 162.83 262.3 161.57 261.38 161.11 260.46 160.65 258.29 161.86 257.25 160.32 256.36 159 253.82 158.37 254.01 158.22 252.41 158.4 251.06 159.25 251.06 159.25L263.1 177.32C263.1 177.32 266.04 177.34 267.08 174.77 264.82 176.32 265.33 174.24 264.59 173.67 263.84 173.1 264.3 173.04 264.42 172.18 264.53 171.32 267.86 169.77 268.17 169.08L268.17 169.08C267.99 168.95 267.73 168.84 267.35 168.74 267.35 168.74 266.54 169.14 266.2 169.31 265.86 169.49 262.82 172.07 263.05 169.31Z" fill="#AA9743"/><path d="M238.85 225.64C234.26 267.03 208.65 269.24 188.82 268.72 160.42 267.98 151.33 253.63 152.58 225.64 153.81 198.11 168.02 175.74 193.22 175.74 218.42 175.74 241.88 198.25 238.85 225.64Z" fill="url(#SVGID_5_)"/><path d="M220.54 211.03C217.39 208.19 212.01 207.86 208.33 209.86 207.39 210.37 207.85 211.88 208.94 211.66 210.96 211.26 212.79 210.85 214.88 210.9 216.72 210.94 218.47 211.28 220.29 211.53 220.54 211.56 220.74 211.21 220.54 211.03Z" fill="#4E2A1E"/><circle cx="210.09" cy="225.38" r="7.42" fill="#FFFFFF"/><circle cx="174.66" cy="223.15" r="7.42" fill="#FFFFFF"/><ellipse cx="207.72" cy="224.32" rx="4.13" ry="4.98" fill="#915323"/><ellipse cx="206.22" cy="221.57" rx="2.2" ry="2.65" fill="#FFFFFF"/><ellipse cx="173.98" cy="221.77" rx="4.13" ry="4.98" fill="#915323"/><ellipse cx="171.78" cy="219.11" rx="2.2" ry="2.65" fill="#FFFFFF"/><path d="M204.12 220.96C204.12 220.96 205.44 218.61 206.9 217.96 208.35 217.3 210.16 217.08 210.77 216.07L210.33 217.3C210.33 217.3 214.12 217.04 216.49 218.22L215.57 218.51C215.57 218.51 218.12 220.7 219.53 221.46 219.53 221.46 217.46 221.39 216.62 220.95 216.62 220.95 217.19 222.81 217.33 223.79 217.47 224.77 217.15 223.79 217.15 223.79 217.15 223.79 216.49 220.29 213.76 219.54 211.04 218.79 206.72 218.1 204.12 220.96Z" fill="#4E2A1E"/><path d="M189.03 228C189.03 228 189.29 235.51 185.33 238.53 181.37 241.55 189.03 243.32 189.03 243.32 189.03 243.32 186.91 241.52 187.71 239.56 188.5 237.59 189.03 228 189.03 228Z" fill="#F8B1AB"/><path d="M207.01 250.75C207.01 250.75 185.5 254.32 177.58 253.63 177.58 253.63 186.18 259.31 193.07 259.14 199.96 258.97 206.67 253.73 207.01 250.75Z" fill="#F8B1AB"/><path d="M238.67 226.51C238.85 225.64 243.15 221.38 245.39 225.37 247.63 229.36 242.64 235.76 237.99 235.92 233.34 236.08 239.13 232.31 239.59 229.8 240.05 227.29 238.34 227.99 238.34 227.99L238.67 226.51Z" fill="#F8B1AB"/><path d="M193.22 175.74C168.02 175.74 153.81 198.11 152.58 225.64 151.92 240.56 154.38 250.65 161.36 257.19 161.3 257.08 152.79 242.26 156.22 219.24 156.22 219.24 158.28 220.92 160.18 214.38 162.07 207.84 170.4 201.86 170.4 201.86L167.25 214.72C167.25 214.72 170.6 209.56 174.17 207.49L176.84 208.3C176.84 208.3 182.75 200.61 194.35 200.78 205.95 200.95 214.23 191.14 214.23 191.14 214.23 191.14 218.85 200.44 225.09 203.38 231.33 206.32 232.53 220.65 229.82 229.21 229.82 229.21 228.66 231.13 232.45 231.78 236.24 232.43 229.75 252.04 230.56 253.08 230.59 253.11 230.63 253.13 230.7 253.12 234.8 246.89 237.78 238.07 238.86 225.63 241.23 198.18 218.42 175.74 193.22 175.74Z" fill="#E8A989"/><path d="M216.82 184.11C216.82 184.11 208.56 193.29 187.45 196.96 181.03 198.57 171.62 203.61 167.49 210.96 167.49 210.96 167.49 204.54 172.54 199.03 172.54 199.03 158.36 207.58 156.99 216.98 156.99 216.98 154.42 216.21 153.96 212.57 153.96 212.57 155.75 219.85 154.12 223.73 154.12 223.73 152.26 220.34 149.13 220.22 149.13 220.22 145.16 213.95 145.09 210.51 145.09 210.51 129.95 195.14 148.84 177.7 148.84 177.7 167.3 137.42 231.08 147.92 241.63 149.94 262.49 163.24 261.57 172.19 261.57 172.19 288.9 249.15 227.86 256.86 227.86 256.86 234.27 249.74 235.33 239.32L239.18 219.8C239.18 219.8 236.57 225.83 231.29 229.75 231.29 229.75 237.48 220.82 231.98 207.75 226.46 194.67 217.97 197.42 216.82 184.11Z" fill="url(#SVGID_6_)"/><g><linearGradient x1="257.332" y1="201.872" x2="206.274" y2="139.352" gradientUnits="userSpaceOnUse" id="SVGID_7_"><stop offset="0" stop-color="#754C29"/><stop offset="1" stop-color="#96634E"/></linearGradient><path d="M261.56 172.18C262.48 163.23 241.63 149.92 231.07 147.91 211.38 144.67 195.71 146.27 183.45 150.03 183.98 149.96 198.78 147.91 200.94 147.91 200.94 147.91 219.14 148.15 208.65 154.86 208.65 154.86 225.52 149.01 233.78 153.83 233.78 153.83 220.53 152.63 213.13 159.51 213.13 159.51 242.3 152.66 246.77 161.42 249.83 167.41 247.1 171.49 245.06 172.19 248.03 171.62 253.82 168.74 254.26 170.53 254.85 172.94 240.09 173.28 239.13 181.89 239.13 181.89 254.17 171.39 260.54 178.62 266.91 185.85 258.27 199.96 256.74 203.4 256.74 203.4 266.26 196.85 267.23 202.02 266.33 185.75 261.56 172.18 261.56 172.18Z" fill="url(#SVGID_7_)"/></g><path d="M261.3 206.74C261.34 206.36 260.1 212.42 252.35 216.12 252.35 216.12 258.54 215.95 260.35 213.71 260.35 213.71 258.63 216.72 257.77 217.5 256.91 218.27 261.99 215.78 263.28 214.32 264.57 212.86 263.28 222.67 255.88 227.91 255.88 227.91 260.82 226.37 263.72 220.51 266.62 214.65 266.81 206.74 266.81 206.74 266.81 206.74 264.83 212.85 262.59 213.28L262.68 209.67C262.68 209.67 259.84 211.99 259.58 211.99 259.33 211.99 260.87 210.61 261.3 206.74Z" fill="#2C1812"/><path d="M187.14 152.71C187.14 152.71 176.64 155.03 168.82 162.6 168.82 162.6 181.64 157.18 187.66 157.18L180.61 163.29C180.61 163.29 188.52 158.47 193.69 158.56 193.69 158.56 197.48 160.62 193.95 162.6 190.42 164.58 187.76 167.93 187.76 167.93 187.76 167.93 192.06 163.97 194.73 163.37 197.4 162.77 199.72 157.26 200.67 154.68 200.67 154.68 196.63 157.18 190.78 157.09 190.78 157.09 195 153.65 197.58 153.05 197.58 153.05 188.12 155.03 185.28 155.11 182.44 155.2 179.34 156.31 179.34 156.31 179.34 156.31 185.42 152.71 187.14 152.71Z" fill="#2C1812"/><path d="M179.4 208.04C175.11 205.94 169.46 206.11 165.3 208.45 165.07 208.58 165.22 208.98 165.48 208.94 170.09 208.2 174.1 208.52 178.54 209.95 179.79 210.36 180.64 208.65 179.4 208.04Z" fill="#4E2A1E"/><path d="M227.85 256.86C257.92 253.06 266.04 231.69 267.21 212.01 265.87 218.22 264 225.22 261.9 228.01 257.77 233.51 252.44 235.3 252.61 227.52 252.78 219.74 246.07 209.99 237.81 216.07 237.81 216.07 242.11 208.34 237.64 202.08 233.17 195.82 224.91 192.55 225.08 187.05 225.25 181.54 229.38 171.06 225.08 166.32 225.08 166.32 222.58 182.74 202.66 188.77 182.74 194.79 170.39 204.47 170.39 204.47 170.39 204.47 182.14 191.87 194.23 187.65 206.32 183.43 204.34 170.87 204.34 170.87 204.34 170.87 202.21 182.71 192.82 185.39 183.43 188.07 161.92 195.31 155.55 210.02 155.55 210.02 153.31 191.86 162.43 183.94 162.43 183.94 148.59 189.24 149.18 212.03 149.18 212.03 138.14 200.13 151.32 187.65 151.32 187.65 142.81 191.65 141.95 202.94 141.95 202.94 136.22 179.86 167.22 173.73 167.22 173.73 157.89 172.26 152.56 175.75 152.56 175.75 154.01 171.83 156.29 168.15 151.08 173.49 148.81 177.7 148.81 177.7 129.92 195.14 145.06 210.51 145.06 210.51 145.06 210.51 148.55 214.84 150.07 215.74 151.59 216.65 151.3 207.31 152.56 202.95 152.56 202.95 152.18 207.86 152.56 209.33 152.68 209.79 153.61 212.2 154.09 213.39 154.99 216.07 156.97 216.99 156.97 216.99 158.35 207.58 172.52 199.04 172.52 199.04 167.47 204.55 167.47 210.97 167.47 210.97 171.6 203.63 181.01 198.58 187.43 196.97 208.54 193.3 216.8 184.12 216.8 184.12 217.95 197.43 226.44 194.67 231.94 207.75 237.45 220.83 231.25 229.75 231.25 229.75 236.53 225.83 239.14 219.8 239.14 219.8L235.29 239.32C234.59 246.17 231.58 251.6 229.6 254.51 228.6 256.02 227.85 256.86 227.85 256.86Z" fill="url(#SVGID_8_)"/><path d="M235.87 225.87C235.87 225.87 238.16 214.83 246.42 221.38 254.68 227.93 247.57 239.45 241.14 240.09 234.72 240.73 234.26 238.03 234.26 238.03L235.87 225.87Z" fill="#F6CEB8"/><path d="M239.18 225.26C239.71 225.08 243.6 223.13 245.51 224.73 247.42 226.33 248.45 233.1 241.34 234.94 234.23 236.78 239.13 232.53 239.18 230.79 239.23 229.05 238.48 225.51 239.18 225.26Z" fill="#F8B1AB"/><path d="M233.84 246.07C233.84 246.07 242.84 247.61 247.08 242.36 247.08 242.36 244.3 246.89 237.1 247.58 237.1 247.58 240.34 248.18 242.58 247.58 242.58 247.58 237.37 249.64 233.84 249.7 233.84 249.7 237.27 252.71 244.5 249.33 251.73 245.95 253.85 240.19 253.85 240.19 253.85 240.19 252.53 250.02 235.12 253.51 235.12 253.51 231.88 254.28 229.81 254.17 229.81 254.18 232.55 250.3 233.84 246.07Z" fill="#2C1812"/><path d="M179.22 253.71C183.35 256.49 195.52 254.93 200.43 254.19 203.85 253.67 205.16 252.04 205.66 250.97 201.16 251.68 186.67 253.86 179.22 253.71Z" fill="#FFFFFF"/><path d="M244.01 219.88C237.7 217.04 235.86 225.87 235.86 225.87L234.25 238.03C234.25 238.03 234.46 239.2 236.44 239.82 235.89 238.17 237.6 235.63 237.86 235.39 238.12 235.15 238.55 234.94 239.79 233.25 241.04 231.57 240.44 229.17 240.27 226.44 240.1 223.71 241.06 224.55 241.06 224.55 240.83 220.7 244 219.88 244.01 219.88Z" fill="#F5C0A2"/></g><path d="M158.23 277.27C158.23 277.27 132.88 275.29 122.01 274.91 111.14 274.54 63.18 270.84 63.18 270.84 63.18 270.84 63.18 245.3 63.18 241.56 63.18 237.82 58.68 240.06 57.93 243.81 57.18 247.56 57.93 260.3 57.93 260.3 57.93 260.3 52.31 249.06 50.06 252.43 47.81 255.8 53.06 259.68 53.06 265.8 53.06 271.92 52.31 279.41 57.93 279.79 63.55 280.16 101.4 283.16 119.38 287.66 137.37 292.16 168.84 298.15 171.84 297.03 174.84 295.9 166.72 279.63 158.23 277.27Z" fill="url(#SVGID_9_)"/><path d="M197.7 270.99C197.7 270.99 164.91 271.74 159.29 272.67 153.67 273.6 166.22 304.98 166.22 310.37 166.22 315.76 197.7 301.36 197.7 301.36L197.7 270.99Z" fill="#16443B"/><path d="M166.23 310.37C166.23 314.52 184.91 306.93 193.48 303.22 190.13 298.36 190.62 293.59 190.62 293.59L189.02 297.16C189.02 297.16 181.11 304.24 174.15 304.24 167.19 304.24 170.72 299.74 167.23 294.12 163.75 288.5 159.29 272.67 159.29 272.67 153.67 273.59 166.23 304.98 166.23 310.37Z" fill="#13352E"/><path d="M232.41 391.13C232.41 391.13 246.82 385.52 256.93 366.2L225.79 269.7 214.56 270.84C214.56 270.84 217.25 281.88 204.44 282.16 195.8 282.34 198.81 271 198.81 271L188.38 270.85 191.64 304.01C191.64 304.01 194.83 331.54 195.21 352.31 195.62 374.79 192.43 390.15 195.62 392.77 198.81 395.39 232.41 391.13 232.41 391.13Z" fill="#96D4CA"/><g><path d="M138.31 113.45C136.52 115.68 127.81 132.89 127.58 146.3 127.36 159.71 131.6 164.85 117.75 182.05 117.75 182.05 125.12 169.76 124.45 160.15 123.78 150.54 123.56 142.27 124.23 138.03 124.9 133.79 123.11 145.4 122.22 156.8 121.33 168.2 114.85 176.91 109.93 180.93 105.01 184.95 98.98 205.29 98.98 205.29 98.98 205.29 98.53 187.64 102.56 177.81 106.59 167.98 103.45 158.59 102.78 157.03 102.11 155.47 104.57 164.4 98.76 172 92.95 179.6 87.36 185.18 87.36 200.38 87.36 200.38 78.65 192.56 78.65 170.89 78.65 149.22 78.87 132.9 84.46 125.75 90.05 118.59 138.31 113.45 138.31 113.45Z" fill="#AD823C"/><path d="M54.3 94.46C54.3 94.46 53.96 115.58 48.27 130.99 42.58 146.4 32.85 150.43 27.15 154.45 21.45 158.47 15.75 173.22 15.42 189.31 15.08 205.4 35.19 255.67 51.62 278.8 68.05 301.93 64.13 305.39 63.24 317.01 62.35 328.63 49.83 350.08 49.83 392.09 49.83 434.1 72.17 450.18 83.79 468.06 95.41 485.94 109.71 561.91 94.52 609.28 79.33 656.65 74.86 675.42 71.28 695.08 67.7 714.74 66.81 744.24 66.81 744.24 66.81 744.24 78.43 750.5 98.99 748.71 98.99 748.71 94.52 761.22 98.1 772.84 101.68 784.46 149.04 782.67 178.54 779.99 208.03 777.31 216.97 766.58 216.97 766.58 216.97 766.58 223.23 745.13 195.52 750.49 167.81 755.85 142.79 746.91 143.68 729.04 144.57 711.16 166.92 656.64 175.86 628.94 184.8 601.24 191.95 535.09 180.33 495.77 168.71 456.45 158.88 322.38 146.37 300.04 133.86 277.7 146.37 215.13 137.43 199.94 128.49 184.75 117.77 169.11 114.86 162.4 111.96 155.7 107.71 146.98 103.46 144.3 99.21 141.62 92.06 142.29 92.06 142.29 92.06 142.29 92.95 134.47 95.41 131.12 97.87 127.75 54.07 102.28 54.3 94.46Z" fill="#D8A684"/><g><g><g><path d="M65.02 699.09C65.02 699.09 60.66 726.57 62 736.96 63.34 747.35 57.31 747.35 70.04 749.7 82.77 752.05 87.13 753.72 95.85 753.72 104.57 753.72 152.83 748.36 159.87 743.67 166.91 738.98 169.59 731.27 165.23 725.91 160.87 720.55 145.46 716.86 135.74 719.54 126.02 722.22 106.58 716.52 104.91 711.16 103.24 705.8 100.89 702.45 100.89 702.45 100.89 702.45 75.75 710.15 65.02 699.09Z" fill="#8685C0"/></g><path d="M138.02 719.05C143.39 725.02 148.26 732.97 147.47 741.66 147.24 744.21 147.53 746 148.2 747.2 153.81 746.04 158.12 744.83 159.87 743.67 166.91 738.98 169.59 731.27 165.23 725.91 161.2 720.95 147.71 717.43 138.02 719.05Z" fill="#D8D8D8"/></g><path d="M81.95 711.5C93.68 714.52 94.02 711.33 99.55 709.49 101.63 708.8 102.41 707.15 102.56 705.38 101.62 703.53 100.89 702.46 100.89 702.46 100.89 702.46 75.75 710.17 65.03 699.11 65.03 699.11 60.67 726.59 62.01 736.98 63.35 747.37 57.32 747.37 70.05 749.72 75.7 750.76 79.7 751.67 83.17 752.36 91.33 752.72 91.88 749.3 87.65 747.04 82.62 744.36 72.23 741.01 67.88 735.31 63.52 729.61 65.7 722.74 66.71 716.71 67.7 710.66 70.22 708.48 81.95 711.5Z" fill="#6A6AA0"/><path d="M111.94 746.02C104.9 747.36 88.81 746.69 75.07 745.35 69.34 744.79 65.14 743.12 62.17 741.37 61.84 747.42 59.43 747.76 70.04 749.71 82.78 752.06 87.13 753.73 95.85 753.73 104.56 753.73 152.83 748.37 159.87 743.68 164.94 740.3 167.73 735.36 167.28 730.86 158.82 742.22 118.68 744.73 111.94 746.02Z" fill="#242428"/></g><g><path d="M99.54 727.92C99.54 727.92 95.85 745.68 94.18 752.72 92.5 759.76 92.5 776.52 96.86 778.86 101.22 781.21 123.34 787.24 151.83 786.23 180.32 785.22 213.16 784.22 217.52 776.51 221.88 768.8 223.89 764.44 220.87 758.08 217.85 751.71 215.17 742.66 201.1 743.33 187.03 744 182 749.36 163.23 748.69 144.46 748.02 143.68 729.03 143.68 729.03 143.68 729.03 108.93 735.29 99.54 727.92Z" fill="#8685C0"/><g><path d="M220.87 758.08C217.85 751.71 215.17 742.66 201.1 743.33 195.91 743.58 191.95 744.46 188.08 745.45 190.42 746.95 197.8 752.4 198.08 761.43 198.42 772.16 199.09 777.18 199.09 777.18 199.09 777.18 215.88 776.48 219.72 772.47L219.72 772.47C222.46 767.09 223.32 763.25 220.87 758.08Z" fill="#D8D8D8"/></g><path d="M128.03 739.15C137.67 738.61 142.8 737.51 144.93 735.16 143.78 731.75 143.67 729.04 143.67 729.04 143.67 729.04 108.92 735.3 99.54 727.92 99.54 727.92 95.85 745.68 94.18 752.72 92.5 759.76 92.5 776.52 96.86 778.86 100.36 780.75 115.34 785 135.87 786.09 138.2 783.17 137.49 780.2 132.89 780.2 122.33 780.2 100.04 773.5 97.7 769.98 95.35 766.46 99.54 750.04 101.72 744.84 103.9 739.65 116.13 739.82 128.03 739.15Z" fill="#6A6AA0"/><path d="M138.42 780.87C115.85 781.97 101.83 776.84 93.76 771.98 94.33 775.37 95.32 778.03 96.86 778.86 101.22 781.21 123.34 787.24 151.83 786.23 180.32 785.22 213.16 784.22 217.52 776.51 218.34 775.06 219.08 773.72 219.72 772.47 206.68 779.14 173.66 779.16 138.42 780.87Z" fill="#242428"/></g><path d="M46.7 346.06C46.7 346.06 37.76 372.43 37.76 395.66 37.76 418.9 54.74 442.58 73.96 474.31 93.18 506.04 102.11 562.79 91.39 594.52 80.66 626.25 64.58 661.55 63.68 699.09 63.68 699.09 85.58 712.05 99.88 704.45 99.88 704.45 93.18 718.3 95.86 728.13 98.54 737.96 128.61 739.46 148.59 729.47 150.38 728.58 164.49 674.6 175.4 644.12 188.36 607.92 195.51 563.23 187.91 508.27 180.31 453.31 170.93 422.02 170.48 401.46 170.03 380.9 158.86 349.62 159.31 340.68 159.31 340.69 121.33 321.03 46.7 346.06Z" fill="#332C21"/><path d="M159.31 340.69C159.31 340.69 155.82 338.89 148.92 337.08 131.41 336.95 107.29 340.93 96.3 342.92 84.35 345.09 60.67 345.21 45.69 349.22 44.25 353.96 41.57 363.53 39.72 374.49 40.38 372.44 43.13 365.71 50.71 365.71 59.65 365.71 65.9 365.71 84.67 363.92 103.44 362.13 125.34 363.47 135.17 358.56 144.36 353.96 153.95 356.79 163.92 364.12 161.38 353.72 159.11 344.82 159.31 340.69Z" fill="#1A1613"/><path d="M48.49 407.28C48.49 407.28 53.85 434.99 85.58 472.52 117.31 510.05 120.33 557.99 108.93 605.91 103.26 629.74 90.5 680.54 83.79 693.05 77.09 705.56 69.94 701.76 69.94 701.76 69.94 701.76 87.37 712.49 99.88 704.44 99.88 704.44 119.54 645 126.69 606.13 133.84 567.25 136.44 558.83 120.88 508.71 112.84 482.79 94.96 468.49 81.11 456.42 67.26 444.35 59.21 430.96 48.49 407.28Z" fill="#1A1613"/><path d="M150.99 97.65C144.45 124.3 119.99 145.24 104.74 140.55 98.83 138.73 48.6 109.99 48.6 77.04 48.6 44.09 71.01 10.24 104.07 15.54 156.35 23.91 158.84 65.64 150.99 97.65Z" fill="#F6D7BB"/><path d="M124.18 123.62C124.18 123.62 114.8 120.27 109.27 120.27 103.74 120.27 103.07 120.77 103.57 121.28 104.07 121.78 111.78 129.32 116.47 128.15 121.16 126.97 120.32 123.79 124.18 123.62Z" fill="#F37C77"/><path d="M43.35 136.47C43.35 136.47 32.4 147.42 22.35 156.58 12.3 165.74 12.3 171.33 11.62 188.31 10.94 205.29 19.44 220.71 27.93 240.82 36.42 260.93 50.27 278.58 50.94 283.27 51.61 287.96 47.14 283.72 49.82 289.08 52.5 294.44 54.74 291.54 54.29 298.91 53.84 306.28 57.64 303.16 52.73 313.43 47.82 323.7 52.28 330.86 47.59 341.58 42.9 352.3 46.7 352.08 46.7 352.08 46.7 352.08 54.07 353.87 58.77 353.2 63.46 352.53 96.31 348.28 119.55 344.49 142.79 340.69 155.08 338.01 157.76 339.8 160.44 341.59 161.11 342.03 160.89 331.09 160.67 320.14 153.07 310.76 150.39 304.72 147.71 298.69 145.25 290.2 145.25 287.96 145.25 285.72 145.03 272.32 145.03 258.02 145.03 243.72 143.24 219.81 143.24 213.56 143.24 207.31 131.62 198.81 118.88 182.73 106.14 166.65 81.34 140.5 77.77 139.61 74.19 138.72 67.94 141.4 63.47 138.94 58.99 136.47 52.06 133.79 43.35 136.47Z" fill="#4DAAD7"/><path d="M125.53 101.25C125.53 101.25 124.57 106.6 127.41 111.13 129.79 114.93 123.47 114.9 123.47 114.9 123.47 114.9 125.6 113.58 125.16 111.72 124.76 110.03 124.71 109.91 125.53 101.25Z" fill="#F59190"/><path d="M119.54 73.31C119.54 73.31 102.8 64.92 91.33 70.83 91.33 70.83 93.35 66.91 95.81 66.85 98.27 66.79 111.59 64.7 119.54 73.31Z" fill="#301310"/><g><circle cx="102.63" cy="88.64" r="9.8" fill="#FFFFFF"/><ellipse cx="103.69" cy="92.04" rx="6.57" ry="5.46" fill="#301310" transform="matrix(0.0787 -0.9969 0.9969 0.0787 3.7714 188.156)"/><ellipse cx="104.48" cy="88.29" rx="3.5" ry="2.91" fill="#FFFFFF" transform="matrix(0.0787 -0.9969 0.9969 0.0787 8.2404 185.503)"/><path d="M111.33 84.14C111.33 84.14 110.08 80.07 105.59 78.61 101.1 77.15 99.87 77.93 98.73 77.6 98.73 77.6 100.39 78.72 100.98 78.68 101.57 78.64 95.41 79.86 94.23 79.96 94.23 79.96 96.89 80.27 97.3 80.2 97.71 80.13 94.39 81.57 92.67 83.41L94.25 83.53C94.25 83.53 92.93 85.34 92.81 88.37 92.81 88.37 93.98 83.57 97.92 81.02 101.86 78.47 108.17 80.58 111.33 84.14Z" fill="#522B23"/></g><g><ellipse cx="136.83" cy="96.03" rx="9.29" ry="8.05" fill="#FFFFFF" transform="matrix(0.2132 -0.977 0.977 0.2132 13.8378 209.238)"/><ellipse cx="135.42" cy="98.91" rx="6.23" ry="4.48" fill="#301310" transform="matrix(0.2132 -0.977 0.977 0.2132 9.9067 210.129)"/><ellipse cx="138" cy="96.2" rx="3.32" ry="2.39" fill="#FFFFFF" transform="matrix(0.2132 -0.977 0.977 0.2132 14.5912 210.516)"/><path d="M131.2 89.78C131.2 89.78 133.26 86.39 137.17 86.17 141.08 85.95 141.83 86.96 142.81 86.95 142.81 86.95 141.21 87.56 140.76 87.38 140.31 87.2 144.82 89.83 145.71 90.22 145.71 90.22 143.55 89.84 143.24 89.68 142.93 89.52 145.16 91.64 146.02 93.75L144.75 93.47C144.75 93.47 145.31 95.45 144.6 98.23 144.6 98.23 144.95 93.57 142.54 90.28 140.11 86.98 134.62 87.32 131.2 89.78Z" fill="#522B23"/></g><path d="M130.69 82.23C130.69 82.23 144.7 75.82 152.45 82.93 152.45 82.93 151.55 78.84 149.69 78.5 147.83 78.17 138.08 74.62 130.69 82.23Z" fill="#301310"/><path d="M103.57 121.27C104.07 121.77 111.78 129.31 116.47 128.14 116.82 128.05 117.14 127.95 117.43 127.84 117.44 127.77 117.48 127.71 117.48 127.64 117.48 125.15 115 121.91 114.12 120.83 112.4 120.5 110.7 120.27 109.27 120.27 103.73 120.27 103.06 120.77 103.57 121.27Z" fill="#D75858"/><path d="M109.26 120.27C104.96 120.27 103.61 120.57 103.45 120.95 106.82 121.01 115.56 121.53 121.2 124.9 121.88 124.21 122.67 123.69 124.18 123.62 124.18 123.62 114.79 120.27 109.26 120.27Z" fill="#FFFFFF"/><g><path d="M50.94 283.27C51.61 287.96 47.14 283.72 49.82 289.08 52.5 294.44 54.74 291.54 54.29 298.91 53.84 306.28 57.64 303.16 52.73 313.43 52.72 313.45 52.71 313.48 52.7 313.5 54.3 311.4 55.5 309.74 55.8 308.96 56.97 305.94 57.98 305.11 60.66 303.6 63.34 302.09 59.15 300.92 58.15 297.06 57.14 293.21 60.83 296.39 68.54 296.72 76.25 297.06 90.66 296.05 88.48 294.37 86.3 292.69 78.26 296.21 69.54 293.2 60.83 290.18 59.32 287.33 55.46 281.64 51.61 275.94 41.38 258.35 39.54 255.33 37.7 252.31 29.49 242.59 33.17 242.59 36.86 242.59 45.57 243.93 49.26 244.1 52.95 244.27 55.96 246.11 55.96 241.42 55.96 236.73 49.42 198.02 52.61 173.05 55.79 148.08 55.12 141.38 54.29 139.7 53.95 139.01 53.29 137.22 52.46 135.42 49.7 135.2 46.65 135.44 43.34 136.46 43.34 136.46 32.39 147.41 22.34 156.57 12.29 165.73 12.29 171.32 11.61 188.3 10.94 205.28 19.43 220.7 27.92 240.81 36.42 260.93 50.27 278.58 50.94 283.27Z" fill="#3F99BC"/><path d="M119.54 344.49C142.78 340.69 155.07 338.01 157.75 339.8 160.43 341.59 161.1 342.03 160.88 331.09 160.66 320.14 153.06 310.76 150.38 304.72 147.7 298.69 145.24 290.2 145.24 287.96 145.24 285.73 145.02 272.32 145.02 258.02 145.02 243.72 143.23 219.81 143.23 213.56 143.23 207.3 131.61 198.81 118.87 182.73 114.47 177.18 108.64 170.42 102.73 163.92 88.79 159.5 77.07 156.27 76.58 157.31 75.41 159.82 71.89 162.17 71.72 165.69 71.72 165.69 68.7 185.13 72.22 193.34 75.74 201.55 77.92 199.37 83.62 206.91 89.32 214.45 87.47 217.8 86.64 217.97 85.8 218.14 77.59 216.46 82.95 221.32 88.31 226.18 91.83 227.69 98.2 233.89 104.57 240.09 105.91 246.29 109.93 253.66 113.95 261.03 117.64 269.75 108.76 269.58 99.88 269.41 90.33 271.09 90.16 273.43 89.99 275.78 114.63 271.75 121.67 280.64 128.71 289.52 127.87 294.05 128.21 306.28 128.55 318.51 129.55 322.87 120.5 327.4 111.45 331.92 107.26 341.48 86.98 341.81 66.7 342.15 62.68 352.03 50.28 348.51 48.46 347.99 46.99 347.36 45.74 346.67 44.24 352.22 46.7 352.09 46.7 352.09 46.7 352.09 54.07 353.88 58.77 353.21 63.46 352.54 96.3 348.29 119.54 344.49Z" fill="#3F99BC"/></g><path d="M81.56 142.5C81.56 142.5 99.05 142.11 105.69 144.51 116.19 148.31 144.35 208.86 149.93 221.15 155.52 233.44 164.45 255.78 164.23 264.05 164.01 272.32 160.21 279.47 154.62 281.03 149.03 282.59 140.32 282.15 123.11 257.79 105.9 233.43 96.52 205.06 89.59 199.25 82.67 193.45 85.8 148.53 81.56 142.5Z" fill="#F6D7BB"/><path d="M149.04 271.87C132.06 267.85 116.19 237.91 110.83 228.3 105.47 218.69 109.27 216.01 111.05 213.78 112.84 211.55 118.87 203.5 122 200.6 125.13 197.7 126.69 194.79 128.48 197.02 130.27 199.25 134.07 199.03 134.07 199.03 134.07 199.03 134.74 200.37 135.41 202.38 136.08 204.39 138.31 206.18 138.31 206.18 138.31 206.18 139.43 210.2 141.89 210.87 142.96 211.16 143.97 210.69 144.78 210.07 140.61 201.26 134.78 189.28 128.75 177.94 124.21 181.92 113.74 193.89 113.74 193.89 113.74 193.89 102.25 206.69 97.81 212.1 103.88 224.03 111.81 241.78 123.12 257.79 140.33 282.15 149.04 282.59 154.63 281.03 158.85 279.85 162.05 275.47 163.46 269.84 160.45 272.15 155.91 273.5 149.04 271.87Z" fill="#EEBE96"/><path d="M154.31 71.61C154.23 51.72 147.19 32.32 125.39 21.9 112.14 22.4 97.88 23.86 89.59 23.86 81.42 23.86 69.96 29.42 60.2 37.05 52.79 48.39 48.6 62.79 48.6 77.03 48.6 96.25 65.69 114.03 81.11 125.88 82.09 124.17 74.27 119.97 72.85 117.47 71.06 114.34 69.72 110.1 69.5 107.64 69.28 105.18 67.49 105.63 67.49 105.63 67.49 105.63 65.7 105.41 61.68 102.5 57.66 99.6 50.95 77.47 52.97 75.24 54.98 73.01 58.33 72.56 58.33 72.56 58.33 72.56 62.13 72.11 62.35 76.14 62.57 80.16 69.5 87.76 69.72 90.27 69.94 92.78 73.07 107.87 73.07 107.87 74.41 93.35 77.76 82.4 89.83 69.21 101.9 56.03 117.98 54.24 117.98 54.24 119.32 61.39 113.29 71.67 113.29 71.67 117.98 71.67 127.37 67.65 127.37 67.65 128.04 80.83 117.54 97.81 121.56 94.69 125.58 91.56 134.97 75.25 138.32 72.35 141.67 69.45 147.26 65.87 150.83 67.43 152.29 68.07 153.45 69.8 154.31 71.61Z" fill="#EEBE96" opacity="0.7"/><path d="M149.93 60.27C149.93 60.27 152.16 50.22 140.1 73.23 128.03 96.24 113.51 100.27 113.51 100.27 113.51 100.27 130.14 87.49 132.28 68.54 133.84 54.69 132.28 51.33 132.28 51.33 132.28 51.33 128.03 58.7 122.45 65.18 116.86 71.66 106.14 77.47 106.14 77.47 106.14 77.47 122.22 64.3 122 48.88 122 48.88 105.47 50.67 95.41 58.71 85.35 66.75 74.18 80.16 72.84 95.58 71.5 111 75.07 113.68 75.07 113.68 75.07 113.68 65.91 101.61 67.03 72.79 67.03 72.79 62.11 70.78 58.54 73.46 54.96 76.14 53.85 83.51 53.85 83.51 53.85 83.51 65.69 96.69 66.14 108.31 66.59 119.93 63.24 133.78 61.22 147.19 59.21 160.6 62.11 220.48 65.69 237.01 65.69 237.01 58.54 203.94 57.65 181.6 56.76 159.26 52.96 140.49 52.96 140.49 52.96 140.49 47.37 182.5 48.49 204.17 49.61 225.84 47.82 235.9 50.72 241.71 50.72 241.71 47.14 238.81 39.32 239.48 31.5 240.15 35.74 217.36 35.74 217.36 35.74 217.36 31.94 231.21 33.06 236.58 34.18 241.94 24.35 239.48 18.09 239.04 11.83 238.6 6.26 235.45 0 235.9 0 235.9 3.8 224.06 3.58 210.65 3.36 197.24 3.8 164.4 14.53 115.69 25.26 66.98 41.11 35.03 44.46 28.1 47.81 21.17 59.65 1.29 84.01 0.39 108.37-0.51 117.53-0.28 125.79 5.53 134.05 11.34 131.82 11.79 145.9 18.27 159.98 24.75 162 37.26 172.05 45.97 182.1 54.68 170.93 80.6 165.12 91.11 159.31 101.62 151.27 114.35 153.28 121.94 153.28 121.94 149.7 114.34 157.08 97.36 164.45 80.38 163.11 75.02 159.98 69.43 159.98 69.43 161.77 80.83 155.51 96.91 149.25 113 142.55 117.24 142.55 117.24 142.55 117.24 153.95 98.25 153.95 77.02 153.95 67.87 154.85 65.64 149.93 60.27Z" fill="#AD823C"/><path d="M58.16 72.59C58.26 72.57 58.31 72.57 58.31 72.57 58.31 72.57 62.11 72.12 62.33 76.15 62.55 80.17 69.48 87.77 69.7 90.28 69.79 91.34 70.4 94.62 71.08 98.07 72.03 91.68 72.33 80.3 68.53 76.37 68.53 76.37 65.68 70.17 59.82 71.85 59.22 72.01 58.68 72.27 58.16 72.59Z" fill="#EEBE96" opacity="0.5"/><path d="M77.76 139.6C77.76 139.6 96.75 138.04 105.24 142.28 113.73 146.52 125.13 166.19 128.03 171.1 130.93 176.02 132.05 181.15 132.05 181.15 132.05 181.15 129.82 188.75 121.77 196.57 113.72 204.39 104.12 217.13 97.41 216.23 90.71 215.34 95.4 211.76 90.04 204.61 84.68 197.46 75.96 201.71 74.18 187.18 72.4 172.67 71.5 142.28 77.76 139.6Z" fill="#4DAAD7"/></g><g><path d="M80.06 67.13C68.74 84.98 70.72 99.89 72.81 107.03 72.49 104.35 72.39 100.66 72.84 95.58 74.18 80.16 85.35 66.76 95.41 58.71 105.47 50.66 122 48.88 122 48.88 122 48.88 96 41.99 80.06 67.13Z" fill="#996E30"/><path d="M106.13 77.48C106.13 77.48 107.46 76.76 109.41 75.55 129.58 58.57 122 48.88 122 48.88 122.22 64.3 106.13 77.48 106.13 77.48Z" fill="#996E30"/><path d="M52.78 81.23C50.33 85.83 56.46 101.77 60.14 107.29 63.82 112.81 62.9 116.79 60.45 125.07 59.65 127.77 60.02 138.84 60.77 152.42 60.88 150.29 61.03 148.51 61.22 147.2 63.23 133.79 66.58 119.94 66.14 108.32 65.69 96.7 53.85 83.52 53.85 83.52 53.85 83.52 53.98 82.65 54.3 81.42 53.6 80.8 53.07 80.68 52.78 81.23Z" fill="#996E30"/><path d="M57.65 181.6C58.54 203.94 65.69 237.01 65.69 237.01 64.76 232.71 63.88 225.48 63.11 216.91 59.78 212.63 57.37 156.02 57.37 156.02 57.37 156.02 57.37 156.02 57.37 147.13 57.37 138.24 53.39 132.72 53.39 132.72 53.39 132.72 47.87 140.38 44.5 166.44 41.4 190.41 42.97 232.78 43.24 239.42 48.35 239.77 50.72 241.7 50.72 241.7 47.82 235.89 49.6 225.84 48.49 204.16 47.37 182.49 52.96 140.48 52.96 140.48 52.96 140.48 56.75 159.26 57.65 181.6Z" fill="#996E30"/><path d="M132.28 68.54C130.14 87.49 113.51 100.27 113.51 100.27 124.58 96.63 130.64 83.99 134.32 75.1 137.77 66.77 132.96 53.18 132.34 51.51 132.62 52.34 133.65 56.42 132.28 68.54Z" fill="#996E30"/><path d="M149.93 60.27C154.85 65.63 153.95 67.87 153.95 77.03 153.95 98.26 142.55 117.25 142.55 117.25 142.55 117.25 142.88 117.04 143.46 116.54 143.48 116.52 143.49 116.5 143.51 116.48 148.41 111.27 156.69 88.89 157.3 74.49 157.92 60.08 149.93 60.27 149.93 60.27Z" fill="#996E30"/></g><path d="M188.39 270.85C188.39 270.85 180.1 269.75 176.42 272.61 172.74 275.47 186.23 326.97 187.46 348.22 188.69 369.47 180.1 395.22 188.69 399.31 197.27 403.4 245.5 399.72 259.81 396.04 274.11 392.36 290.87 388.27 283.52 374.38 276.16 360.48 243.06 273.02 235.7 270.16 228.34 267.3 214.58 270.85 214.58 270.85 214.58 270.85 215.67 281.6 206.68 282.01 197.69 282.42 197.72 270.99 197.72 270.99L188.39 270.85Z" fill="#96D4CA"/><path d="M234.45 271.79C234.45 271.79 258.16 291.82 246.71 309.39 235.26 326.96 234.04 324.92 234.04 324.92 234.04 324.92 216.87 325.33 214.42 311.02 211.97 296.72 214.83 293.45 219.32 291.4 223.83 289.37 216.86 274.47 234.45 271.79Z" fill="#16443B"/><path d="M222.19 297.95C219.05 294.03 216.67 293.97 215.03 294.96 213.41 297.7 212.93 302.31 214.42 311.03 216.87 325.33 234.04 324.93 234.04 324.93 234.04 324.93 234.1 325.03 234.31 325 233.94 318.92 227.61 304.72 222.19 297.95Z" fill="#13352E"/><path d="M106.12 314.81C106.12 314.81 106.58 311.9 103.82 307.76 101.06 303.62 98.46 302.55 97.38 301.02 96.31 299.49 93.4 301.33 94.93 303.93 96.46 306.54 98.61 310.06 98.3 310.67 97.99 311.28 90.48 308.52 89.41 304.69 88.34 300.86 89.1 300.25 88.03 298.87 86.96 297.49 84.35 298.56 84.35 298.56 84.35 298.56 85.12 306.38 86.5 307.3 87.88 308.22 83.59 306.38 83.28 304.23 82.97 302.08 81.59 302.7 81.59 302.7 81.59 302.7 81.13 305.38 81.44 306.3 81.75 307.22 83.82 309.9 83.82 309.9 83.82 309.9 81.06 308.06 80.52 306.76 79.98 305.46 79.29 306.3 79.06 307.91 78.98 308.45 79.17 309.03 79.45 309.56 80.02 310.63 80.97 311.51 80.97 311.51 80.97 311.51 79.9 309.98 79.82 309.29 79.74 308.6 78.52 310.06 79.13 311.82 79.74 313.58 80.74 317.57 83.42 320.4 86.1 323.24 93.38 324.84 96.22 326.76 99.06 328.68 104.42 328.14 106.95 327.99 109.48 327.84 105.2 316.88 106.12 314.81Z" fill="#F6CEB8"/><g><path d="M85.2 307.3C86.43 307.76 86.96 307.84 86.96 307.84 86.96 307.84 86.86 307.71 86.73 307.54 86.36 307.49 83.53 305.96 83.28 304.24 83.13 303.16 82.7 302.78 82.32 302.67 82.55 303.12 82.72 303.59 82.75 303.94 82.82 305 83.97 306.84 85.2 307.3Z" fill="#ECB091"/><path d="M86.6 307.37C86.42 307.14 86.2 306.85 85.97 306.55 86.14 306.9 86.31 307.17 86.5 307.3 86.55 307.33 86.57 307.35 86.6 307.37Z" fill="#ECB091"/><path d="M79.33 309.47C79.16 309.75 79.01 310.16 78.99 310.67 79.19 310.66 79.39 310.71 79.53 310.9 79.99 311.51 83.13 315.34 83.13 315.34 83.13 315.34 80.71 310.97 79.33 309.47Z" fill="#ECB091"/><path d="M98.32 310.45C98.33 310.54 98.32 310.62 98.3 310.67 97.99 311.28 90.48 308.52 89.41 304.69 88.34 300.86 89.1 300.25 88.03 298.87 87.8 298.58 87.5 298.41 87.17 298.31 87.65 298.78 87.98 299.25 87.95 299.56 87.87 300.56 88.26 305.46 89.33 306.69 90.4 307.92 93.39 310.98 96.38 311.29 99.16 311.57 100.14 312.24 98.32 310.45Z" fill="#ECB091"/><path d="M84.05 310.59C83.74 310.13 83.82 309.9 83.82 309.9 83.82 309.9 81.06 308.06 80.52 306.76 80.21 306 79.85 305.99 79.55 306.41 79.67 306.79 79.83 307.17 80.06 307.45 80.75 308.29 84.36 311.05 84.05 310.59Z" fill="#ECB091"/><path d="M94.57 303.05C94.61 303.23 94.69 303.42 94.78 303.62 94.71 303.42 94.64 303.23 94.57 303.05Z" fill="#ECB091"/></g><path d="M162.52 259.02C162.52 259.02 235.47 233.58 251.41 221.01 267.35 208.44 264.9 228.98 259.07 236.95 253.25 244.92 223.82 262.7 203.28 273.12 182.74 283.54 153.32 293.66 144.12 280.17 134.93 266.68 160.99 257.79 162.52 259.02Z" fill="#F6D7BB"/><path d="M259.54 235.88C259.54 235.88 262.76 231.59 265.52 229.9 268.28 228.21 275.02 223.31 275.48 219.78 275.94 216.25 276.4 215.03 277.17 210.43 277.94 205.83 277.94 197.1 275.48 195.26 273.03 193.42 265.98 190.66 265.98 190.66 265.98 190.66 266.29 194.95 265.67 197.56 265.06 200.17 264.6 204.76 263.83 204.3 263.06 203.84 263.22 196.48 263.22 195.56 263.22 194.64 263.99 193.11 262.3 191.42 260.61 189.73 259.08 197.24 258.93 200.62 258.78 203.99 252.95 212.73 256.63 217.94 260.3 223.15 259.54 235.88 259.54 235.88Z" fill="#F6D7BB"/><g><path d="M262.3 191.43C260.61 189.74 259.08 197.25 258.93 200.63 258.78 204 252.95 212.74 256.63 217.95 256.86 218.28 257.08 218.64 257.28 219.02 257.87 218.7 258.28 218.49 258.47 218.41 260.62 217.49 258.62 216.11 257.4 213.97 256.17 211.82 259.09 205.85 259.55 202.93 260.01 200.02 260.93 195.27 261.7 192.97 261.89 192.39 262.21 191.99 262.57 191.74 262.47 191.63 262.4 191.53 262.3 191.43Z" fill="#EEBE96"/><path d="M265.98 190.66C265.98 190.66 266.29 194.95 265.67 197.56 265.06 200.17 264.6 204.76 263.83 204.3 263.37 206.29 266.74 200.47 267.66 199.24 268.58 198.01 269.81 195.87 268.73 194.8 268.09 194.16 268.16 192.7 268.32 191.63 266.96 191.05 265.98 190.66 265.98 190.66Z" fill="#EEBE96"/></g><path d="M259.36 217.04C257.48 217.11 254.88 218.28 251.42 221.01 246.65 224.77 236.79 229.68 225.31 234.71 231.35 233.94 256.47 219.26 258.47 218.4 259.33 218.03 259.52 217.58 259.36 217.04Z" fill="#EEBE96"/><g><path d="M258.16 333.51C260 340.25 264.29 346.38 267.97 348.84 271.01 350.86 268.58 338.26 266.18 333.89 261.99 323.8 257.54 313.17 253.34 303.55 252.81 307.66 251.92 314.07 250.81 320.03 248.96 329.83 256.32 326.76 258.16 333.51Z" fill="#6DA89D"/><path d="M281.46 381.33C275.94 388.07 234.87 394.2 223.22 392.98 211.57 391.75 193.79 388.08 194.41 381.94 195.02 375.81 188.89 345.16 198.7 340.86 208.51 336.57 229.35 331.66 225.67 324.31 221.99 316.95 188.37 328.06 189.5 310.82 190.63 293.58 185.82 284.46 186.43 280.17 186.82 277.45 181.28 279.17 176.55 283.62 179.01 300.59 186.54 332.59 187.45 348.22 188.68 369.47 180.09 395.22 188.68 399.31 197.26 403.4 245.49 399.72 259.8 396.04 273.83 392.43 290.2 388.43 283.89 375.17 283.3 377.91 282.47 380.08 281.46 381.33Z" fill="#6DA89D"/></g><path d="M223.01 300.2C223.01 300.2 206.66 311.03 188.27 317.77 169.88 324.51 107.96 316.03 105.51 314.81 103.06 313.58 101.53 327.07 105.51 327.99 109.49 328.91 168.04 343.32 182.76 340.25 197.47 337.18 232.89 322.48 232.62 320.02 231.39 308.78 223.01 300.2 223.01 300.2Z" fill="url(#SVGID_10_)"/><g><g><g><path d="M265.06 327.82C265.06 327.82 266.97 329.41 267.71 330.02 268.45 330.63 268.73 333.11 268.52 334.44 268.32 335.77 267.58 338.29 265.88 338.51 264.18 338.73 263.29 335.53 263.35 333.07 263.41 330.61 265.06 327.82 265.06 327.82Z" fill="#F6D7BB"/></g><path d="M266.39 331.3C266.11 329.35 265.48 328.72 265.48 328.72 265.48 328.72 264.71 329.09 264.22 329.57 263.81 330.57 263.39 331.86 263.36 333.08 263.33 334.44 263.6 336 264.12 337.11 264.3 337.06 264.48 336.85 264.62 336.39 265.15 334.57 266.67 333.25 266.39 331.3Z" fill="#D8AD8B"/></g><g><g><path d="M263.87 320.9C263.87 320.9 265.7 321.92 266.3 322.97 266.9 324.02 267.4 324.84 267.02 327.16 266.63 329.48 264.03 331.54 262.8 333.03 261.58 334.51 260.19 331.84 260.52 328.84 260.85 325.84 263.78 322.13 263.87 320.9Z" fill="#F6D7BB"/></g><path d="M264.16 322.24C264.17 323.25 262.01 326.63 262.01 326.63 262.01 326.63 261.42 327 260.79 327.56 260.66 328 260.56 328.43 260.51 328.85 260.43 329.59 260.46 330.31 260.56 330.96 260.84 330.82 261.1 330.57 261.26 330.19 261.77 328.97 265.15 326.26 265.32 325.01 265.49 323.76 264.15 321.23 264.16 322.24Z" fill="#D8AD8B"/></g><g><g><path d="M259.17 312.73C259.17 312.73 264.82 313.57 266.17 316.8 267.51 320.03 264.16 324.72 262.89 326.88 261.62 329.03 259.74 327.11 259.72 325.76 259.7 324.41 259.36 313.2 259.17 312.73Z" fill="#F6D7BB"/></g><path d="M261.97 318.81C262.25 317.23 260.78 314.19 260.78 314.19L259.6 319.06C259.6 319.06 259.58 319.36 259.54 319.82 259.64 322.55 259.71 325.16 259.72 325.76 260.36 326.26 261.69 320.39 261.97 318.81Z" fill="#D8AD8B"/></g><g><path d="M252.42 301.96C252.42 301.96 256.6 301.47 260.9 304.01 265.2 306.55 259.72 316.19 259.45 319.98 259.19 323.77 258.57 326.25 256.63 325.1 254.69 323.96 253.69 322.32 253.93 318.86 254.17 315.41 255.75 312.04 256.7 311.21L252.42 301.96Z" fill="#F6D7BB"/><path d="M255.51 321.13C254.16 316.42 258.55 310.09 258.3 308.81 258.05 307.53 256.48 307.26 256.48 307.26 256.48 307.26 256.05 307.85 255.48 308.57L256.71 311.22C255.76 312.05 254.18 315.41 253.94 318.87 253.7 322.32 254.71 323.96 256.64 325.11 257.13 325.4 257.54 325.45 257.88 325.31 257.91 325.28 257.92 325.25 257.92 325.25 257.92 325.25 256.86 325.84 255.51 321.13Z" fill="#D8AD8B"/></g><path d="M256.93 319.97C256.93 319.97 258.35 321.24 259.29 321.06 259.29 321.06 259.94 323.79 259.15 324.33 258.36 324.87 256.1 323.52 256.93 319.97Z" fill="#F5F7FC"/><path d="M262.67 323.14C262.67 323.14 263.51 324.37 264.17 324.5 264.83 324.63 263.04 327.53 262.78 327.51 262.53 327.49 260.98 326.8 261.07 325.46 261.18 324.13 262.67 323.14 262.67 323.14Z" fill="#F5F7FC"/><path d="M262.98 329.63C262.98 329.63 263.21 331.16 264.38 331.24 264.38 331.24 263.85 333.16 262.8 333.03 261.75 332.9 261.75 331.64 261.78 331.22 261.8 330.81 262.98 329.63 262.98 329.63Z" fill="#F5F7FC"/><path d="M266.32 334.73 268.24 336.04 267.23 338.49C267.23 338.49 265.58 338.04 265.33 336.85 265.08 335.66 266.32 334.73 266.32 334.73Z" fill="#F5F7FC"/></g><path d="M180.79 218.89C180.79 218.89 179.72 216.42 178.34 215.61 176.96 214.81 175.19 214.4 174.68 213.33L174.99 214.6C174.99 214.6 171.25 213.95 168.76 214.88L169.65 215.26C169.65 215.26 166.88 217.17 165.4 217.79 165.4 217.79 167.47 217.93 168.34 217.58 168.34 217.58 167.58 219.37 167.34 220.33 167.1 221.29 167.52 220.35 167.52 220.35 167.52 220.35 168.54 216.94 171.33 216.47 174.13 216.02 178.5 215.78 180.79 218.89Z" fill="#4E2A1E"/></g><path d="M68.54 76.36C68.54 76.36 65.69 70.16 59.83 71.84 53.96 73.52 52.29 82.4 55.64 88.93 58.99 95.47 59.16 101.33 63.01 103.34 66.86 105.35 68.88 105.35 70.22 102 71.56 98.65 73.4 81.39 68.54 76.36Z" fill="#F6D7BB"/><path d="M66.36 78.04C66.36 78.04 62 74.35 59.66 78.54 57.32 82.73 57.65 84.24 58.65 87.92 59.66 91.61 57.48 86.08 59.66 83.73 61.84 81.38 62.84 79.88 63.68 81.22 64.52 82.56 63.68 84.4 63.85 86.92 64.02 89.43 66.36 90.27 66.36 92.79 66.36 95.31 68.04 99.83 68.2 98.49 68.37 97.15 69.88 97.65 69.71 90.28 69.55 82.9 67.03 78.71 66.36 78.04Z" fill="#D8A17C"/><path d="M67.03 72.79C67.03 72.79 62.23 89.55 74.63 113.12 74.63 113.12 70.05 97.14 72.4 84.74 74.75 72.34 82.9 57.82 94.74 52.23 94.74 52.23 78.65 58.82 67.03 72.79Z" fill="#AD823C"/></g></svg>